<?xml version="1.0" encoding="utf-8"?>
<!-- Generator: Adobe Illustrator 17.0.0, SVG Export Plug-In . SVG Version: 6.00 Build 0)  -->
<!DOCTYPE svg PUBLIC "-//W3C//DTD SVG 1.1//EN" "http://www.w3.org/Graphics/SVG/1.1/DTD/svg11.dtd">
<svg version="1.1" id="Слой_3" xmlns="http://www.w3.org/2000/svg" xmlns:xlink="http://www.w3.org/1999/xlink" x="0px" y="0px"
	 width="128px" height="128px" viewBox="0 0 128 128" enable-background="new 0 0 128 128" xml:space="preserve">
<ellipse fill="none" cx="57.667" cy="110.688" rx="47.667" ry="11.813"/>
<path fill="#fff" d="M77,108.5c0,3.866-3.134,7-7,7H44c-3.866,0-7-3.134-7-7l0,0c0-3.866,3.134-7,7-7h26
	C73.866,101.5,77,104.634,77,108.5L77,108.5z"/>
<path fill="#37a0ef" d="M70,118.5H44c-5.514,0-10-4.486-10-10s4.486-10,10-10h26c5.514,0,10,4.486,10,10S75.514,118.5,70,118.5z
	 M44,104.5c-2.206,0-4,1.794-4,4s1.794,4,4,4h26c2.206,0,4-1.794,4-4s-1.794-4-4-4H44z"/>
<rect x="51.334" y="61.5" fill="#B2EDA6" width="11" height="45"/>
<path fill="#37a0ef" d="M62.5,109.5h-11c-1.657,0-3-1.343-3-3v-45c0-1.657,1.343-3,3-3h11c1.657,0,3,1.343,3,3v45
	C65.5,108.157,64.157,109.5,62.5,109.5z M54.5,103.5h5v-39h-5V103.5z"/>
<path fill="#fff" d="M35.929,11.094c-16.793,16.793-16.793,44.019,0,60.811c16.792,16.793,44.019,16.793,60.811,0L35.929,11.094z
	"/>
<path fill="#37a0ef" d="M66.334,87.5c-12.287,0-23.839-4.785-32.526-13.474C25.119,65.339,20.334,53.787,20.334,41.5
	s4.785-23.839,13.474-32.527c1.125-1.126,3.117-1.126,4.242,0l60.81,60.811c1.172,1.171,1.172,3.07,0,4.242
	C90.173,82.715,78.621,87.5,66.334,87.5z M36.007,15.415c-6.259,7.254-9.673,16.407-9.673,26.085
	c0,10.685,4.161,20.729,11.716,28.284S55.65,81.5,66.334,81.5c9.678,0,18.832-3.414,26.085-9.673L36.007,15.415z"/>
<path opacity="0.2" fill="#37a0ef" enable-background="new    " d="M72.409,85.494c-11.853,0-23.751-4.994-33.048-14.293
	C23.517,55.358,20.186,32.199,31.26,14.883c0.893-1.395,2.746-1.805,4.144-0.911c1.396,0.892,1.804,2.748,0.911,4.143
	c-9.544,14.923-6.547,35.008,7.289,48.843c11.188,11.188,26.58,15.275,40.172,10.67c1.57-0.533,3.272,0.31,3.805,1.877
	c0.532,1.569-0.309,3.272-1.877,3.805C81.374,84.779,76.895,85.494,72.409,85.494z"/>
<rect x="50.334" y="80.5" opacity="0.2" fill="#37a0ef" enable-background="new    " width="11" height="13"/>
<path fill="#fff" d="M96.193,71.954c3.198-3.197-7.981-19.561-24.97-36.548C54.236,18.418,38.58,7.946,35.383,11.143"/>
<path fill="#fff" d="M96.193,74.954c-0.768,0-1.536-0.293-2.122-0.879c-1.05-1.051-1.158-2.687-0.324-3.858
	c-0.034-2.874-7.212-15.258-24.645-32.689C51.887,20.311,40.092,13.56,37.197,13.56c-0.013,0-0.024,0-0.036,0
	c-1.175,0.866-2.836,0.769-3.899-0.295c-1.172-1.171-1.172-3.071,0-4.242c2.878-2.878,7.981-1.582,16.548,4.196
	c6.873,4.636,15.231,11.763,23.535,20.067c8.345,8.344,15.593,16.823,20.411,23.875c6.028,8.824,7.435,14.041,4.559,16.917
	C97.729,74.661,96.961,74.954,96.193,74.954z"/>
<path fill="#fff" d="M37.047,12.695c-3.198,3.197,6.571,18.151,22.644,34.225c16.074,16.073,31.696,26.512,34.894,23.314"/>
<path fill="#37a0ef" d="M92.962,72.767c-10.121,0-33.573-23.321-34.684-24.433c-7.825-7.826-14.504-15.729-18.805-22.254
	c-4.982-7.56-6.239-12.4-3.84-14.799c0.781-0.78,2.047-0.781,2.828,0c0.772,0.773,0.781,2.021,0.025,2.803
	c-1.019,2.155,5.639,14.44,22.619,31.421c17.308,17.306,29.934,24.251,32.134,23.263c0.781-0.78,2.015-0.756,2.794,0.026
	c0.781,0.78,0.747,2.072-0.034,2.854C95.227,72.421,94.192,72.767,92.962,72.767z"/>
<line fill="none" x1="60.646" y1="46.188" x2="72.834" y2="34"/>
<path fill="#37a0ef" d="M60.646,49.188c-0.768,0-1.535-0.293-2.121-0.879c-1.172-1.171-1.172-3.071,0-4.242L70.713,31.88
	c1.172-1.172,3.07-1.172,4.242,0c1.172,1.171,1.172,3.071,0,4.242L62.768,48.309C62.182,48.895,61.414,49.188,60.646,49.188z"/>
<circle fill="#fff" cx="75.334" cy="31.5" r="7"/>
<path fill="#37a0ef" d="M75.334,41.5c-5.514,0-10-4.486-10-10s4.486-10,10-10s10,4.486,10,10S80.848,41.5,75.334,41.5z M75.334,27.5
	c-2.206,0-4,1.794-4,4s1.794,4,4,4s4-1.794,4-4S77.54,27.5,75.334,27.5z"/>
<path fill="#37a0ef" d="M92.152,34.5c-1.657,0-3-1.343-3-3c0-7.62-6.199-13.818-13.818-13.818c-1.657,0-3-1.343-3-3s1.343-3,3-3
	c10.928,0,19.818,8.891,19.818,19.818C95.152,33.157,93.81,34.5,92.152,34.5z"/>
<path fill="#37a0ef" d="M102.668,34.5c-1.657,0-3-1.343-3-3c0-13.418-10.916-24.334-24.334-24.334c-1.657,0-3-1.343-3-3s1.343-3,3-3
	c16.727,0,30.334,13.608,30.334,30.334C105.668,33.157,104.325,34.5,102.668,34.5z"/>
</svg>
