<?xml version="1.0" encoding="utf-8"?>
<!-- Generator: Adobe Illustrator 21.0.2, SVG Export Plug-In . SVG Version: 6.00 Build 0)  -->
<svg version="1.1" id="box" xmlns="http://www.w3.org/2000/svg" xmlns:xlink="http://www.w3.org/1999/xlink" x="0px" y="0px"
	 viewBox="0 0 128 128" style="enable-background:new 0 0 128 128;" xml:space="preserve">
<style type="text/css">
	.st0{fill:#D3D1D1;}
	.st1{fill:#F99900;}
	.st2{fill:#D6742B;}
	.st3{fill:#6B3C1C;}
	.st4{opacity:0.5;fill:#FFFFFF;}
</style>
<g>
	<circle class="st0" cx="64" cy="64" r="64"/>
	<polygon class="st1" points="29.8,60.3 56.7,60.3 46.6,48.1 19.8,48.1 	"/>
	<polygon class="st2" points="101.4,60 74.6,60 84.7,47.9 111.5,47.9 	"/>
	<path class="st3" d="M101.1,61.1H74.6c-0.4,0-0.7-0.2-0.9-0.6c-0.2-0.4-0.1-0.8,0.1-1.1l9.9-12.1c0.2-0.2,0.5-0.4,0.8-0.4H111
		c0.4,0,0.7,0.2,0.9,0.6c0.2,0.4,0.1,0.8-0.1,1.1l-9.9,12.1C101.6,61,101.4,61.1,101.1,61.1z M76.7,59.1h23.9l8.3-10.1H85L76.7,59.1
		z"/>
	<polygon class="st2" points="100.3,60.3 56.7,60.3 66.8,78.2 110.4,78.2 	"/>
	<path class="st3" d="M110,79H66.7c-0.4,0-0.7-0.2-0.9-0.5l-10-17.9c-0.2-0.3-0.2-0.7,0-1c0.2-0.3,0.5-0.5,0.9-0.5H100
		c0.4,0,0.7,0.2,0.9,0.5l10,17.9c0.2,0.3,0.2,0.7,0,1C110.7,78.8,110.4,79,110,79z M67.3,77h41.1l-8.9-15.9H58.4L67.3,77z"/>
	<rect x="29.5" y="60.1" class="st1" width="71" height="46"/>
	<rect x="29.5" y="60" class="st2" width="44" height="26"/>
	<rect x="73.5" y="60" class="st2" width="27" height="8"/>
	<path class="st3" d="M56.7,59.9H30c-0.3,0-0.6,1.2-0.8,0.9l-10-12.1c-0.2-0.3-0.3-0.7-0.1-1.1c0.2-0.4,0.5-0.6,0.9-0.6h26.7
		c0.3,0,0.6,0.1,0.8,0.4l10,12.1c0.2,0.3,0.3,0.7,0.1,1.1C57.4,60.9,57.1,59.9,56.7,59.9z M30.5,59.1h24.1L46.2,49H22.1L30.5,59.1z"
		/>
	<path class="st3" d="M74,107.1c-0.6,0-1-0.4-1-1V61.4c0-0.6,0.4-1,1-1s1,0.4,1,1v44.7C75,106.7,74.6,107.1,74,107.1z"/>
	<line class="st1" x1="25.5" y1="106" x2="104.5" y2="106"/>
	<path class="st3" d="M105,107H25c-0.6,0-1-0.4-1-1s0.5-1,1-1h80c0.6,0,1,0.4,1,1S105.5,107,105,107z"/>
	<path class="st3" d="M82,76c-0.6,0-1-0.4-1-1v-6.9c0-0.5,0.4-1,1-1s1,0.4,1,1V75C83,75.6,82.6,76,82,76z"/>
	<path class="st3" d="M85,71c-0.3,0-0.6-0.1-0.8-0.4L82,67.7l-2.2,2.9c-0.3,0.5-1,0.5-1.4,0.2c-0.4-0.4-0.5-1-0.2-1.5l3-3.9
		c0.4-0.5,1.2-0.5,1.6,0l3,3.9c0.3,0.5,0.3,1.1-0.2,1.5C85.4,70.9,85.2,71,85,71z"/>
	<path class="st3" d="M91,76c-0.6,0-1-0.4-1-1v-6.9c0-0.5,0.4-1,1-1s1,0.4,1,1V75C92,75.6,91.6,76,91,76z"/>
	<path class="st3" d="M94,71c-0.3,0-0.6-0.1-0.8-0.4L91,67.7l-2.2,2.9c-0.3,0.5-1,0.5-1.4,0.2c-0.4-0.4-0.5-1-0.2-1.5l3-3.9
		c0.4-0.5,1.2-0.5,1.6,0l3,3.9c0.3,0.5,0.3,1.1-0.2,1.5C94.4,70.9,94.2,71,94,71z"/>
	<path class="st4" d="M70,47.1c-2.2,0-4-1.8-4-4c0-2.2,1.8-4,4-4c2.2,0,4,1.8,4,4C74,45.3,72.2,47.1,70,47.1z M70,41
		c-1.2,0-2.1,1-2.1,2.1c0,1.2,1,2.1,2.1,2.1c1.2,0,2.1-1,2.1-2.1C72.1,41.9,71.2,41,70,41z"/>
	<path class="st4" d="M31,30.2c-2.2,0-4-1.8-4-4c0-2.2,1.8-4,4-4c2.2,0,4,1.8,4,4C35,28.4,33.2,30.2,31,30.2z M31,24
		c-1.2,0-2.1,1-2.1,2.1c0,1.2,1,2.1,2.1,2.1c1.2,0,2.1-1,2.1-2.1C33.1,25,32.2,24,31,24z"/>
	<path class="st4" d="M62,17c-2.2,0-4-1.8-4-4c0-2.2,1.8-4,4-4c2.2,0,4,1.8,4,4C66,15.2,64.2,17,62,17z M62,10.9
		c-1.2,0-2.1,1-2.1,2.1c0,1.2,1,2.1,2.1,2.1c1.2,0,2.1-1,2.1-2.1C64.1,11.8,63.2,10.9,62,10.9z"/>
	<path class="st4" d="M55.5,27.3c0-0.4-0.4-0.8-1-0.9l-1.9-0.3c-0.5-0.1-1.1-0.6-1.1-1.1l-0.3-1.9c-0.1-0.5-0.5-1-0.9-1
		c-0.4,0-0.8,0.4-0.9,1L49.2,25c-0.1,0.5-0.6,1.1-1.1,1.1l-1.9,0.3c-0.5,0.1-1,0.5-1,0.9c0,0.4,0.4,0.8,1,0.9l1.9,0.3
		c0.5,0.1,1.1,0.6,1.1,1.1l0.3,1.9c0.1,0.5,0.5,1,0.9,1c0.4,0,0.8-0.4,0.9-1l0.3-2.1c0.1-0.5,0.6-1,1.1-1.1l1.8-0.1
		C55.1,28,55.5,27.7,55.5,27.3z"/>
	<path class="st4" d="M109.5,36.3c0-0.4-0.4-0.8-1-0.9l-1.9-0.3c-0.5-0.1-1.1-0.6-1.1-1.1l-0.3-1.9c-0.1-0.5-0.5-1-0.9-1
		c-0.4,0-0.8,0.4-0.9,1l-0.3,1.9c-0.1,0.5-0.6,1.1-1.1,1.1l-1.9,0.3c-0.5,0.1-1,0.5-1,0.9c0,0.4,0.4,0.8,1,0.9l1.9,0.3
		c0.5,0.1,1.1,1.6,1.1,2.1l0.3,0.9c0.1,0.5,0.5,1,0.9,1c0.4,0,0.8-0.4,0.9-1l0.3-2.1c0.1-0.5,0.6-1,1.1-1.1l1.8-0.1
		C109.1,37,109.5,36.7,109.5,36.3z"/>
	<path class="st4" d="M84.5,23c0-0.4-0.4-0.8-1-0.9l-1.9-0.3c-0.5-0.1-1.1-0.6-1.1-1.1l-0.3-1.9c-0.1-0.5-0.5-1-0.9-1
		s-0.8,0.4-0.9,1l-0.3,1.9c-0.1,0.5-0.6,1.1-1.1,1.1l-1.9,0.3c-0.5,0.1-1,0.5-1,0.9s0.4,0.8,1,0.9l1.9,0.3c0.5,0.1,1.1,0.6,1.1,1.1
		l0.3,1.9c0.1,0.5,0.5,1,0.9,1s0.8-0.4,0.9-1l0.3-2.1c0.1-0.5,0.6-1,1.1-1.1l1.8-0.1C84.1,23.8,84.5,23.4,84.5,23z"/>
	<path class="st4" d="M44.1,53H28.9c-0.5,0-0.9-0.4-0.9-1s0.4-1,0.9-1h15.1c0.5,0,0.9,0.4,0.9,1S44.6,53,44.1,53z"/>
	<path class="st4" d="M96,102c-0.6,0-1-0.4-1-1V78c0-0.6,0.4-1,1-1s1,0.4,1,1v23C97,101.6,96.6,102,96,102z"/>
	<path class="st3" d="M100,107H29c-0.6,0-1-0.4-1-1V60c0-0.6,0.4-1,1-1h71c0.6,0,1,0.4,1,1v46C101,106.6,100.6,107,100,107z M30,105
		h69V61H30V105z"/>
	<polygon class="st1" points="29.8,61 73.5,61 63.4,78 19.8,78 	"/>
	<path class="st3" d="M63.4,79H20c-0.4,0-0.7-0.2-0.9-0.5c-0.2-0.3-0.2-0.7,0-1l10-18c0.2-0.3,0.5,0.5,0.9,0.5h43.4
		c0.4,0,0.7-0.3,0.9,0c0.2,0.3,0.2,0.1,0,0.5l-10,18C64.1,78.8,63.8,79,63.4,79z M21.7,77h41.2l8.9-16H30.6L21.7,77z"/>
	<path class="st4" d="M64,65H34c-0.5,0-1-0.4-1-1s0.4-1,1-1h30c0.5,0,1,0.4,1,1S64.6,65,64,65z"/>
</g>
</svg>
