<?xml version="1.0" encoding="utf-8"?>
<!-- Generator: Adobe Illustrator 21.0.2, SVG Export Plug-In . SVG Version: 6.00 Build 0)  -->
<svg version="1.1" id="delivery" xmlns="http://www.w3.org/2000/svg" xmlns:xlink="http://www.w3.org/1999/xlink" x="0px" y="0px"
	 viewBox="0 0 128 128" style="enable-background:new 0 0 128 128;" xml:space="preserve">
<style type="text/css">
	.st0{fill:#3AD0F9;}
	.st1{fill:#84DB14;}
	.st2{fill:#6B3C1C;}
	.st3{fill:#FFFFFF;}
	.st4{fill:#663210;}
	.st5{fill:#EAEAEA;}
	.st6{fill:#D4D6D6;}
	.st7{fill:#FF4848;}
	.st8{fill:#FBD000;}
	.st9{fill:#415E6D;}
	.st10{fill:#324D5B;}
	.st11{opacity:0.5;fill:#FFFFFF;}
	.st12{opacity:0.5;fill:#074370;}
</style>
<g>
	<circle class="st0" cx="64" cy="64" r="64"/>
	<ellipse class="st1" cx="109.4" cy="66.5" rx="13.6" ry="20.8"/>
	<path class="st2" d="M109.5,88c-8,0-14.5-9.9-14.5-22c0-12.1,6.5-22,14.5-22c8,0,14.5,9.9,14.5,22C124,78.1,117.5,88,109.5,88z
		 M109.5,46C102.6,46,97,55,97,66c0,11,5.6,20,12.5,20c6.9,0,12.5-9,12.5-20C122,55,116.4,46,109.5,46z"/>
	<path class="st2" d="M109,104.6c-0.6,0-1-0.4-1-1V62c0-0.6,0.4-1,1-1c0.6,0,1,0.4,1,1v41.7C110,104.2,109.6,104.6,109,104.6z"/>
	<path class="st2" d="M110.1,76c-0.3,0-0.6-0.1-0.8-0.3c-0.4-0.4-0.4-1.1,0-1.5l5.8-5.8c0.4-0.4,1.1-0.4,1.5,0
		c0.4,0.4,0.4,1.1,0,1.5l-5.8,5.8C110.6,75.9,110.4,76,110.1,76z"/>
	<path class="st3" d="M117.9,61c-0.6,0-1.1-0.4-1.1-1c0-4.4-5.4-8.2-5.4-8.2c-0.5-0.3-0.6-1-0.2-1.4c0.4-0.4,1-0.5,1.5-0.2
		c0.3,0.2,6.3,4.4,6.3,9.8C119,60.6,118.5,61,117.9,61z"/>
	<path class="st4" d="M116.6,105H9.6c-0.6,0-1-0.4-1-1s0.4-1,1-1h107.1c0.6,0,1,0.4,1,1S117.2,105,116.6,105z"/>
	<path class="st5" d="M80.5,86c0,4.4-3.6,8-8,8H25.8c-4.4,0-8-3.6-8-8V60.5c0-4.4,3.6-8,8-8h46.7c4.4,0,8,3.6,8,8V86z"/>
	<path class="st5" d="M111,90c0,2.2-1.8,4-4,4H84.5c-2.2,0-4-1.8-4-4V62c0-2.2,1.8-4,4-4h2c2.2,0,5.4,0,7.1,0c1.7,0,3.9,1,4.9,2.3
		c1,1.3,2.9,3.8,4.2,5.5l5.8,7.5c1.3,1.7,2.4,5,2.4,7.2V90z"/>
	<path class="st6" d="M72.5,86.7H25.8c-4.4,0-8-3.6-8-8V86c0,4.4,3.6,8,8,8h46.7c4.4,0,8-3.6,8-8v-7.3
		C80.5,83.1,76.9,86.7,72.5,86.7z"/>
	<rect x="18.5" y="76" class="st7" width="62" height="6"/>
	<rect x="18.5" y="85" class="st7" width="62" height="5"/>
	<path class="st6" d="M107,88H84.5c-2.2,0-4-1.6-4-3.8V90c0,2.2,1.8,4,4,4H107c2.2,0,4-1.8,4-4v-5.8C111,86.4,109.2,88,107,88z"/>
	<polyline class="st8" points="111,81.5 106.8,81.5 106.8,86.7 111,86.7 	"/>
	<path class="st4" d="M73,95H26c-5,0-9-4-9-9V60c0-5,4-9,9-9h47c5,0,9,4,9,9v26C82,91,78,95,73,95z M26,53c-3.9,0-7,3.1-7,7v26
		c0,3.9,3.1,7,7,7h47c3.9,0,7-3.1,7-7V60c0-3.9-3.1-7-7-7H26z"/>
	<path class="st4" d="M107,95H85c-2.8,0-5-2.2-5-5V62c0-2.8,2.2-5,5-5h8.8c2.1,0,4.6,1.2,5.7,2.7c0.9,1.3,2.7,3.8,4,5.5l5.9,7.9
		c1.4,1.9,2.6,5.4,2.6,7.8v9C112,92.8,109.8,95,107,95z M85,59c-1.7,0-3,1.3-3,3v28c0,1.7,1.3,3,3,3h22c1.7,0,3-1.3,3-3v-9
		c0-2-1-5-2.2-6.6l-5.9-7.9c-1.3-1.8-3.1-4.3-4.1-5.6c-0.7-1-2.6-1.9-4.1-1.9H85z"/>
	<circle class="st9" cx="34.9" cy="95.9" r="8.1"/>
	<circle class="st9" cx="95.8" cy="95.9" r="8.1"/>
	<path class="st3" d="M88.8,63.3c-1.1,0-2,0.9-2,2v10c0,1.1,0.9,2,2,2H103c1.1,0,1.5-0.7,0.9-1.6L96.5,65c-0.6-0.9-2-1.6-3.1-1.6
		H88.8z"/>
	<path class="st4" d="M12,76H6c-0.6,0-1-0.4-1-1s0.5-1,1-1H12c0.6,0,1,0.4,1,1S12.5,76,12,76z"/>
	<path class="st4" d="M12,89H1c-0.6,0-1-0.4-1-1s0.5-1,1-1H12c0.6,0,1,0.4,1,1S12.5,89,12,89z"/>
	<path class="st10" d="M34.9,100.7c-3.9,0-7.2-2.8-8-6.5c-0.1,0.5-0.2,1.1-0.2,1.7c0,4.5,3.6,8.1,8.1,8.1c4.5,0,8.1-3.6,8.1-8.1
		c0-0.6-0.1-1.1-0.2-1.7C42.1,97.9,38.8,100.7,34.9,100.7z"/>
	<path class="st10" d="M95.8,100.7c-3.9,0-7.2-2.8-8-6.5c-0.1,0.5-0.2,1.1-0.2,1.7c0,4.5,3.6,8.1,8.1,8.1c4.5,0,8.1-3.6,8.1-8.1
		c0-0.6-0.1-1.1-0.2-1.7C102.9,97.9,99.7,100.7,95.8,100.7z"/>
	<path class="st4" d="M24,83H4c-0.6,0-1-0.4-1-1s0.5-1,1-1h20c0.6,0,1,0.4,1,1S24.5,83,24,83z"/>
	<path class="st3" d="M44,39.3c0-1.1-1.3-2.3-3-2.3H27.1c-1.7,0-3,1.2-3,2.3c0,1.1-1.1,1.7-2.5,1.7c-1.4,0-2.5,1.2-2.5,2.3
		c0,1.1,1.3,1.7,3,1.7h10c1.7,0,3-0.6,3-1.7c0-1.1,1.3-2.3,3-2.3h3C42.7,41,44,40.4,44,39.3z"/>
	<path class="st3" d="M107,29.3c0-1.1-1.3-2.3-3-2.3H90.1c-1.7,0-3,1.2-3,2.3S85.9,31,84.5,31c-1.4,0-2.5,1.2-2.5,2.3
		c0,1.1,1.3,1.7,3,1.7h10c1.7,0,3-0.6,3-1.7c0-1.1,1.3-2.3,3-2.3h3C105.7,31,107,30.4,107,29.3z"/>
	<path class="st8" d="M59,20.3c0,4.8-3.6,8.7-8.4,8.7c-4.8,0-8.6-4.2-8.6-9c0-4.8,3.8-8,8.6-8C55.4,12,59,15.4,59,20.3z"/>
	<path class="st4" d="M35,105c-5,0-9-4-9-9c0-5,4-9,9-9c5,0,9,4,9,9C44,101,40,105,35,105z M35,89c-3.9,0-7,3.2-7,7s3.2,7,7,7
		c3.9,0,7-3.2,7-7S38.9,89,35,89z"/>
	<path class="st4" d="M96,105c-5,0-9-4-9-9c0-5,4-9,9-9c5,0,9,4,9,9C105,101,101,105,96,105z M96,89c-3.9,0-7,3.2-7,7s3.2,7,7,7
		c3.9,0,7-3.2,7-7S99.9,89,96,89z"/>
	<circle class="st5" cx="35" cy="96" r="4"/>
	<circle class="st5" cx="96" cy="96" r="4"/>
	<path class="st4" d="M103.9,79H89c-1.6,0-3-1.3-3-3V65c0-1.7,1.3-3,3-3h4c1.4,0,3.1,0.9,4,2l8.6,11.8c0.5,0.7,0.7,1.5,0.3,2.2
		C105.5,78.6,104.8,79,103.9,79z M89,64c-0.5,0-1,0.4-1,1v11c0,0.6,0.4,1,1,1h14.9c0,0,0,0,0,0c0,0,0,0,0,0l-8.6-11.8
		C94.9,64.6,93.7,64,93,64H89z"/>
	<path class="st4" d="M111,88h-4c-0.6,0-1-0.4-1-1v-5c0-0.6,0.4-1,1-1h4c0.6,0,1,0.4,1,1s-0.4,1-1,1h-3v3h3c0.6,0,1,0.4,1,1
		S111.6,88,111,88z"/>
	<path class="st3" d="M76,73c-0.6,0-1-0.4-1-1V60.8c0-3.3-0.8-3.8-3.3-3.8H38c-0.6,0-1-0.4-1-1s0.4-1,1-1h33.7
		c3.9,0,5.3,1.6,5.3,5.8V72C77,72.6,76.6,73,76,73z"/>
	<path class="st3" d="M34,57h-5.9c-0.6,0-1-0.4-1-1s0.4-1,1-1H34c0.6,0,1,0.4,1,1S34.6,57,34,57z"/>
	<path class="st3" d="M84,86c-0.6,0-1-0.4-1-1V63c0-0.5,0.4-1,1-1c0.6,0,1,0.4,1,1v22C85,85.6,84.6,86,84,86z"/>
	<path class="st11" d="M75,80H67c-0.5,0-1-0.4-1-1s0.4-1,1-1H75c0.5,0,1,0.4,1,1S75.6,80,75,80z"/>
	<path class="st11" d="M61,80H30c-0.6,0-1-0.4-1-1s0.4-1,1-1h31c0.6,0,1,0.4,1,1S61.6,80,61,80z"/>
	<path class="st11" d="M40.9,97c-0.6,0-1.1-0.5-1.1-1.1c0-2.6-2.2-4.8-4.8-4.8c-0.6,0-1.1-0.5-1.1-1.1c0-0.6,0.5-1.1,1.1-1.1
		c3.8,0,6.9,3.1,6.9,6.9C42,96.5,41.5,97,40.9,97z"/>
	<path class="st11" d="M101.9,96.9c-0.6,0-1.1-0.5-1.1-1.1c0-2.6-2.2-4.7-5-4.7c-0.6,0-1.1-0.5-1.1-1.1s0.5-1.1,1.1-1.1
		c4,0,7.2,3.1,7.2,6.8C103,96.4,102.5,96.9,101.9,96.9z"/>
	<path class="st12" d="M91,70.4c-0.3,0-0.5-0.1-0.7-0.3c-0.4-0.4-0.4-1,0-1.4l2.4-2.4c0.4-0.4,1-0.4,1.4,0c0.4,0.4,0.4,1,0,1.4
		l-2.4,2.4C91.5,70.3,91.3,70.4,91,70.4z"/>
	<path class="st12" d="M91.1,75c-0.3,0-0.5-0.1-0.7-0.3c-0.4-0.4-0.4-1,0-1.4l4.6-4.4c0.4-0.4,1.1-0.4,1.5,0c0.4,0.4,0.4,1,0,1.4
		l-4.6,4.4C91.6,74.9,91.3,75,91.1,75z"/>
	<path class="st3" d="M63,45c-2.2,0-4-1.8-4-4c0-2.2,1.8-4,4-4c2.2,0,4,1.8,4,4C67,43.2,65.2,45,63,45z M63,39c-1.1,0-2,0.9-2,2
		c0,1.1,0.9,2,2,2c1.1,0,2-0.9,2-2C65,39.9,64.1,39,63,39z"/>
	<path class="st3" d="M77.7,18.5c0-0.4-0.4-0.8-1-0.9l-1.9-0.3c-0.5-0.1-1.1-0.6-1.1-1.1l-0.3-1.9c-0.1-0.5-0.5-1-0.9-1
		c-0.4,0-0.8,0.4-0.9,1l-0.3,1.9c-0.1,0.5-0.6,1.1-1.1,1.1l-1.9,0.3c-0.5,0.1-1,0.5-1,0.9s0.4,0.8,1,0.9l1.9,0.3
		c0.5,0.1,1.1,0.6,1.1,1.1l0.3,1.9c0.1,0.5,0.5,1,0.9,1c0.4,0,0.8-0.4,0.8-1l0.3-2.1c0.1-0.5,0.6-1,1.1-1.1l1.8-0.1
		C77.3,19.2,77.7,18.9,77.7,18.5z"/>
</g>
</svg>
