<?xml version="1.0" encoding="utf-8"?>
<!-- Generator: Adobe Illustrator 17.0.0, SVG Export Plug-In . SVG Version: 6.00 Build 0)  -->
<!DOCTYPE svg PUBLIC "-//W3C//DTD SVG 1.1//EN" "http://www.w3.org/Graphics/SVG/1.1/DTD/svg11.dtd">
<svg version="1.1" id="icon" xmlns="http://www.w3.org/2000/svg" xmlns:xlink="http://www.w3.org/1999/xlink" x="0px" y="0px"
	 width="128px" height="128px" viewBox="0 0 128 128" enable-background="new 0 0 128 128" xml:space="preserve">
<ellipse fill="none" cx="62.667" cy="112.362" rx="47.667" ry="10.186"/>
<path fill="#fff" d="M77.543,85.627l-7.071,7.071c-1.456,1.456-1.938,3.662-1.588,6.212c-7.66-4.063-15.36-9.726-22.454-16.818
	c-7.093-7.094-12.755-14.794-16.819-22.454c2.55,0.35,4.756-0.132,6.212-1.588l7.071-7.071c3.71-3.71,1.177-12.258-5.657-19.092
	S21.856,22.52,18.146,26.23l-7.071,7.07c-1.002,1.002-1.534,2.364-1.664,3.942C3.04,52.386,11.689,77.049,31.581,96.94
	c19.892,19.893,44.555,28.541,59.697,22.17c1.578-0.13,2.941-0.662,3.942-1.663l7.071-7.071c3.71-3.71,1.177-12.258-5.657-19.092
	C89.8,84.45,81.253,81.917,77.543,85.627z"/>
<path fill="#37a0ef" d="M80.163,124.175C80.162,124.175,80.162,124.175,80.163,124.175c-16.025,0-34.979-9.389-50.703-25.113
	C9.195,78.798-0.199,53.161,6.473,36.501c0.269-2.129,1.121-3.961,2.48-5.321l7.072-7.07c1.692-1.692,4.048-2.588,6.813-2.588
	c5.183,0,11.359,3.082,16.52,8.244c8.128,8.128,10.613,18.378,5.657,23.334l-7.07,7.071c-0.942,0.942-2.093,1.636-3.407,2.064
	c3.768,6.21,8.552,12.273,14.014,17.735c5.458,5.458,11.519,10.241,17.727,14.009c0.426-1.307,1.12-2.45,2.072-3.402l7.071-7.071
	c1.692-1.692,4.048-2.587,6.813-2.587c5.183,0,11.359,3.082,16.521,8.244c3.653,3.652,6.33,7.909,7.538,11.986
	c1.396,4.71,0.728,8.739-1.881,11.348l-7.07,7.071c-1.361,1.359-3.193,2.211-5.322,2.48C88.497,123.46,84.51,124.175,80.163,124.175
	z M22.838,27.521c-1.155,0-2.021,0.279-2.571,0.83l-7.071,7.07c-0.452,0.452-0.719,1.147-0.795,2.067
	c-0.026,0.315-0.102,0.625-0.225,0.917C6.19,52.635,15.243,76.36,33.702,94.819c14.406,14.406,32.208,23.355,46.46,23.355
	c3.718,0,7.067-0.615,9.953-1.83c0.292-0.122,0.602-0.198,0.918-0.225c0.92-0.075,1.616-0.343,2.068-0.795l7.069-7.07
	c1.92-1.92,0.696-8.497-5.656-14.85c-3.941-3.94-8.761-6.486-12.279-6.486c-1.155,0-2.02,0.279-2.57,0.829l-7.071,7.071
	c-0.95,0.95-0.87,2.716-0.737,3.684c0.153,1.115-0.332,2.222-1.254,2.867c-0.922,0.644-2.13,0.719-3.124,0.19
	c-8.111-4.304-16.123-10.302-23.169-17.348c-7.047-7.047-13.045-15.059-17.348-23.169c-0.527-0.995-0.454-2.201,0.191-3.124
	c0.645-0.923,1.752-1.406,2.867-1.255c1.673,0.231,2.974-0.027,3.684-0.736l7.07-7.071c0.952-0.952,1.091-2.971,0.371-5.401
	c-0.915-3.089-3.112-6.533-6.027-9.448C31.176,30.068,26.357,27.521,22.838,27.521z"/>
<path opacity="0.2" fill="#37a0ef" d="M83.519,120.821c-15.587,0.001-34.799-9.208-50.705-25.114
	C12.55,75.443,3.156,49.806,9.827,33.146c0.269-2.13,1.121-3.961,2.48-5.321l7.072-7.07c1.171-1.172,3.071-1.172,4.243,0
	c1.171,1.172,1.171,3.071-0.001,4.242l-7.071,7.07c-0.452,0.452-0.719,1.147-0.795,2.067c-0.026,0.315-0.102,0.625-0.225,0.917
	C9.544,49.28,18.597,73.006,37.057,91.465c18.459,18.46,42.184,27.517,56.413,21.525c0.292-0.122,0.602-0.198,0.918-0.225
	c0.92-0.075,1.616-0.343,2.068-0.795l7.069-7.07c1.172-1.172,3.072-1.172,4.243,0c1.172,1.171,1.172,3.07,0.001,4.242l-7.071,7.071
	c-1.361,1.359-3.193,2.211-5.322,2.48C91.791,120.129,87.79,120.821,83.519,120.821z"/>
<path fill="#FFFFFF" d="M39.712,56.161c-0.512,0-1.024-0.195-1.414-0.586c-0.781-0.781-0.781-2.047,0-2.828
	c1.233-1.233,1.46-3.564,0.622-6.393c-0.975-3.292-3.205-6.797-6.279-9.871s-6.58-5.304-9.872-6.279
	c-2.829-0.838-5.159-0.612-6.392,0.622c-0.78,0.781-2.048,0.781-2.828,0c-0.781-0.781-0.781-2.047,0-2.828
	c2.336-2.338,6.017-2.915,10.356-1.629c3.92,1.161,8.027,3.749,11.564,7.286c3.537,3.536,6.124,7.643,7.286,11.563
	c1.286,4.342,0.708,8.02-1.629,10.356C40.736,55.966,40.224,56.161,39.712,56.161z"/>
<path fill="#FFFFFF" d="M99.109,115.558c-0.512,0-1.024-0.195-1.414-0.586c-0.781-0.781-0.781-2.048,0-2.828
	c1.234-1.233,1.461-3.563,0.623-6.393c-0.976-3.292-3.206-6.797-6.279-9.871c-3.074-3.073-6.58-5.304-9.872-6.279
	c-2.828-0.837-5.158-0.61-6.392,0.622c-0.78,0.781-2.048,0.781-2.828,0c-0.781-0.781-0.781-2.047,0-2.828
	c4.559-4.56,14.188-2.075,21.92,5.657c3.537,3.536,6.125,7.644,7.286,11.563c1.287,4.342,0.708,8.02-1.629,10.357
	C100.133,115.362,99.621,115.558,99.109,115.558z"/>
<path fill="#37a0ef" d="M38.211,54.672c-4.76,0-10.706-2.818-15.823-7.936c-3.537-3.536-6.125-7.643-7.286-11.563
	c-1.286-4.342-0.707-8.019,1.629-10.356c0.78-0.781,2.048-0.781,2.828,0c0.781,0.781,0.781,2.047,0,2.828
	c-1.233,1.233-1.461,3.563-0.622,6.393c0.975,3.292,3.205,6.797,6.279,9.871c3.074,3.073,6.58,5.304,9.872,6.278
	c2.828,0.84,5.158,0.611,6.392-0.622c0.78-0.781,2.048-0.781,2.828,0c0.781,0.781,0.781,2.047,0,2.828
	C42.767,53.935,40.644,54.671,38.211,54.672z"/>
<path fill="#37a0ef" d="M97.609,114.068c-4.759,0.001-10.707-2.818-15.823-7.936c-7.732-7.731-10.217-17.36-5.657-21.92
	c0.78-0.781,2.048-0.781,2.828,0c0.781,0.781,0.781,2.047,0,2.828c-1.233,1.233-1.46,3.563-0.622,6.393
	c0.976,3.292,3.205,6.797,6.279,9.871c3.074,3.073,6.58,5.304,9.872,6.279c2.828,0.837,5.158,0.611,6.392-0.622
	c0.78-0.781,2.048-0.781,2.828,0c0.781,0.781,0.781,2.047,0,2.828C102.164,113.332,100.041,114.068,97.609,114.068z"/>
<path fill="#37a0ef" d="M31.855,61.056c-1.323,0-2.755-0.222-4.267-0.67c-3.92-1.161-8.027-3.749-11.564-7.286
	c-7.732-7.731-10.217-17.36-5.657-21.92c0.78-0.781,2.048-0.781,2.828,0c0.781,0.781,0.781,2.047,0,2.828
	c-1.233,1.233-1.46,3.563-0.622,6.393c0.976,3.292,3.205,6.797,6.279,9.871c3.074,3.074,6.58,5.304,9.872,6.279
	c2.829,0.838,5.159,0.612,6.392-0.622c0.78-0.781,2.048-0.781,2.828,0c0.781,0.781,0.781,2.047,0,2.828
	C36.422,60.279,34.33,61.056,31.855,61.056z"/>
<path fill="#37a0ef" d="M91.252,120.453c-1.323,0-2.754-0.222-4.267-0.67c-3.92-1.161-8.027-3.749-11.563-7.286
	c-3.537-3.536-6.124-7.644-7.286-11.563c-1.287-4.342-0.708-8.02,1.629-10.356c0.78-0.781,2.048-0.781,2.828,0
	c0.781,0.781,0.781,2.047,0,2.828c-1.233,1.233-1.46,3.563-0.622,6.393c0.976,3.292,3.206,6.797,6.279,9.871
	c3.074,3.073,6.58,5.304,9.872,6.279c2.828,0.838,5.159,0.611,6.392-0.623c0.781-0.781,2.047-0.781,2.829,0
	c0.781,0.78,0.781,2.047,0.001,2.828C95.819,119.677,93.727,120.453,91.252,120.453z"/>
<path fill="#37a0ef" d="M109.812,91.678c-0.588,0-1.182-0.172-1.702-0.531c-1.363-0.941-1.706-2.81-0.764-4.173
	C113.007,78.772,116,69.159,116,59.175c0-27.019-21.981-49-49-49c-10.457,0-20.44,3.257-28.872,9.418
	c-1.337,0.979-3.214,0.686-4.192-0.651c-0.978-1.338-0.686-3.215,0.652-4.192C44.054,7.831,55.262,4.175,67,4.175
	c30.327,0,55,24.673,55,55c0,11.208-3.36,21.999-9.717,31.207C111.701,91.226,110.764,91.678,109.812,91.678z"/>
<path fill="#37a0ef" d="M109.682,91.679c-1.33,0-2.546-0.893-2.9-2.239l-3.051-11.627c-0.421-1.603,0.538-3.243,2.14-3.663
	c1.605-0.422,3.244,0.537,3.664,2.14l2.29,8.726l8.041-2.109c1.602-0.422,3.243,0.538,3.663,2.14
	c0.42,1.603-0.538,3.243-2.141,3.663l-10.943,2.871C110.19,91.646,109.934,91.679,109.682,91.679z"/>
<path fill="#37a0ef" d="M72.765,69.175H55.788v-2c0-3.94,3.609-7.245,7.43-10.745c3.167-2.901,6.758-6.189,6.758-8.961
	c0-3.514-2.979-5.094-5.094-5.094c-1.768,0-5.883,0.573-5.883,5.883c0,1.104-0.896,2-2,2s-2-0.896-2-2
	c0-7.295,5.324-9.883,9.883-9.883c4.47,0,9.094,3.401,9.094,9.094c0,4.532-4.096,8.283-8.057,11.911
	c-2.067,1.894-4.333,3.968-5.442,5.795h12.287c1.104,0,2,0.896,2,2S73.869,69.175,72.765,69.175z"/>
<path fill="#37a0ef" d="M89,69.175c-1.104,0-2-0.896-2-2v-6H77c-0.729,0-1.4-0.397-1.752-1.034
	c-0.352-0.639-0.329-1.418,0.061-2.034l12-19c0.475-0.754,1.392-1.103,2.247-0.853C90.411,38.501,91,39.284,91,40.175v17h4
	c1.104,0,2,0.896,2,2s-0.896,2-2,2h-4v6C91,68.279,90.104,69.175,89,69.175z M80.628,57.175H87V47.087L80.628,57.175z"/>
<path fill="#37a0ef" d="M80.163,124.175C80.162,124.175,80.162,124.175,80.163,124.175c-16.025,0-34.979-9.389-50.703-25.113
	C9.195,78.798-0.199,53.161,6.473,36.501c0.269-2.129,1.121-3.961,2.48-5.321l7.072-7.07c1.692-1.692,4.048-2.588,6.813-2.588
	c5.183,0,11.359,3.082,16.52,8.244c8.128,8.128,10.613,18.378,5.657,23.334l-7.07,7.071c-0.942,0.942-2.093,1.636-3.407,2.064
	c3.768,6.21,8.552,12.273,14.014,17.735c5.458,5.458,11.519,10.241,17.727,14.009c0.426-1.307,1.12-2.45,2.072-3.402l7.071-7.071
	c1.692-1.692,4.048-2.587,6.813-2.587c5.183,0,11.359,3.082,16.521,8.244c3.653,3.652,6.33,7.909,7.538,11.986
	c1.396,4.71,0.728,8.739-1.881,11.348l-7.07,7.071c-1.361,1.359-3.193,2.211-5.322,2.48C88.497,123.46,84.51,124.175,80.163,124.175
	z M22.838,27.521c-1.155,0-2.021,0.279-2.571,0.83l-7.071,7.07c-0.452,0.452-0.719,1.147-0.795,2.067
	c-0.026,0.315-0.102,0.625-0.225,0.917C6.19,52.635,15.243,76.36,33.702,94.819c14.406,14.406,32.208,23.355,46.46,23.355
	c3.718,0,7.067-0.615,9.953-1.83c0.292-0.122,0.602-0.198,0.918-0.225c0.92-0.075,1.616-0.343,2.068-0.795l7.069-7.07
	c1.92-1.92,0.696-8.497-5.656-14.85c-3.941-3.94-8.761-6.486-12.279-6.486c-1.155,0-2.02,0.279-2.57,0.829l-7.071,7.071
	c-0.95,0.95-0.87,2.716-0.737,3.684c0.153,1.115-0.332,2.222-1.254,2.867c-0.922,0.644-2.13,0.719-3.124,0.19
	c-8.111-4.304-16.123-10.302-23.169-17.348c-7.047-7.047-13.045-15.059-17.348-23.169c-0.527-0.995-0.454-2.201,0.191-3.124
	c0.645-0.923,1.752-1.406,2.867-1.255c1.673,0.231,2.974-0.027,3.684-0.736l7.07-7.071c0.952-0.952,1.091-2.971,0.371-5.401
	c-0.915-3.089-3.112-6.533-6.027-9.448C31.176,30.068,26.357,27.521,22.838,27.521z"/>
</svg>
