<svg  viewBox="0 0 512.0003 512"  xmlns="http://www.w3.org/2000/svg"><path d="m204.746094 129.890625 49.089844-49.089844 37.695312 37.695313-49.089844 49.089844zm0 0" fill="#dc4d41"/><path d="m95.460938 180.132812 128.859374-128.859374 36.816407 36.816406-128.859375 128.863281zm0 0" fill="#ea6b65"/><path d="m322.5 39 18.40625 18.40625-104.320312 104.316406 36.820312 36.820313 104.320312-104.316407 18.40625 18.40625 18.414063-92.039062zm0 0" fill="#ea6b65"/><path d="m43.390625 399.1875h69.421875v104.136719h-69.421875zm0 0" fill="#f3af3e"/><path d="m164.882812 338.441406h69.421876v164.882813h-69.421876zm0 0" fill="#99d8aa"/><path d="m286.371094 251.660156h69.425781v251.660156h-69.425781zm0 0" fill="#6cbae5"/><path d="m407.863281 173.558594h69.425781v329.761718h-69.425781zm0 0" fill="#ea6b65"/><g fill="#5d9aa4"><path d="m503.320312 512h-494.640624c-4.792969 0-8.679688-3.886719-8.679688-8.679688v-494.640624c0-4.792969 3.886719-8.679688 8.679688-8.679688 4.792968 0 8.675781 3.886719 8.675781 8.679688v485.964843h485.964843c4.792969 0 8.679688 3.886719 8.679688 8.679688 0 4.789062-3.886719 8.675781-8.679688 8.675781zm0 0"/><path d="m69.421875 355.796875h17.359375v17.355469h-17.359375zm0 0"/><path d="m190.914062 295.050781h17.355469v17.355469h-17.355469zm0 0"/><path d="m312.40625 208.269531h17.355469v17.359375h-17.355469zm0 0"/><path d="m433.898438 130.167969h17.355468v17.359375h-17.355468zm0 0"/></g></svg>