<?xml version="1.0" encoding="UTF-8"?>
<svg viewBox="0 0 512 512" xmlns="http://www.w3.org/2000/svg">
    <path d="m437 0h-362c-41.352 0-75 33.648-75 75v362c0 41.352 33.648 75 75 75h362c41.352 0 75-33.648 75-75v-362c0-41.352-33.648-75-75-75zm-180 390c-74.441 0-135-60.559-135-135s60.559-135 135-135 135 60.559 135 135-60.559 135-135 135zm150-240c-24.812 0-45-20.188-45-45s20.188-45 45-45 45 20.188 45 45-20.188 45-45 45z"/>
    <path d="m407 90c-8.2773 0-15 6.7227-15 15s6.7227 15 15 15 15-6.7227 15-15-6.7227-15-15-15z"/>
    <path d="m257 150c-57.891 0-105 47.109-105 105s47.109 105 105 105 105-47.109 105-105-47.109-105-105-105z"/>
</svg>