<svg height="479pt" viewBox="-31 0 479 479.95198" width="479pt" xmlns="http://www.w3.org/2000/svg"><path d="m8.476562 71.953125h400v400h-400zm0 0" fill="#ff9811"/><path d="m40.476562 103.953125h336v336h-336zm0 0" fill="#ffe477"/><path d="m224.476562 23.953125c0 8.835937-7.164062 16-16 16-8.835937 0-16-7.164063-16-16s7.164063-16 16-16c8.835938 0 16 7.164063 16 16zm0 0" fill="#ff9811"/><path d="m280.476562 439.953125h-184v-27.359375c.027344-21.636719 14.496094-40.589844 35.359376-46.320312l41.761718-11.363282 34.878906 29.042969 34.878907-29.042969 41.761719 11.363282c20.859374 5.730468 35.328124 24.683593 35.359374 46.320312v27.359375zm0 0" fill="#3d9ae2"/><path d="m243.355469 354.910156-34.878907 29.042969-34.878906-29.042969 10.878906-2.957031v-22.480469c14.832032 8.636719 33.164063 8.636719 48 0v22.480469zm0 0" fill="#ffdaaa"/><path d="m256.476562 267.550781v20.402344c.007813 17.136719-9.144531 32.972656-24 41.519531-14.835937 8.636719-33.167968 8.636719-48 0-3.636718-2.070312-6.976562-4.628906-9.921874-7.601562-9.046876-8.964844-14.117188-21.183594-14.078126-33.917969v-20.402344c15.109376 7.03125 31.375 11.230469 48 12.402344 16.621094-1.171875 32.890626-5.371094 48-12.402344zm0 0" fill="#ffdaaa"/><path d="m264.476562 210.433594v53.519531s-3.039062 1.519531-8 3.597656c-15.109374 7.03125-31.378906 11.230469-48 12.402344-16.625-1.171875-32.890624-5.371094-48-12.402344-4.960937-2.078125-8-3.597656-8-3.597656v-53.519531l56 21.519531zm0 0" fill="#898890"/><path d="m312.476562 191.953125-48 18.480469-56 21.519531-56-21.519531-48-18.480469 104-40zm0 0" fill="#acabb1"/><path d="m232.476562 329.472656v8c-14.835937 8.636719-33.167968 8.636719-48 0v-8c14.832032 8.636719 33.164063 8.636719 48 0zm0 0" fill="#f2ca96"/><path d="m40.476562 447.953125h336c4.417969 0 8-3.582031 8-8v-336c0-4.417969-3.582031-8-8-8h-336c-4.417968 0-8 3.582031-8 8v336c0 4.417969 3.582032 8 8 8zm248-16v-32h-16v32h-128v-32h-16v32h-24v-19.359375c.058594-18.019531 12.101563-33.792969 29.464844-38.601562l37.734375-10.273438 31.679688 26.402344c2.964843 2.46875 7.273437 2.46875 10.242187 0l31.679688-26.402344 37.710937 10.265625c17.371094 4.804687 29.421875 20.582031 29.488281 38.609375v19.359375zm-80-208.570313-81.710937-31.429687 81.710937-31.433594 81.710938 31.433594zm-2.871093 16.042969c1.847656.703125 3.894531.703125 5.742187 0l45.128906-17.363281v36.800781c-15.070312 7.253907-31.335937 11.691407-48 13.089844-16.664062-1.410156-32.929687-5.847656-48-13.097656v-36.800781zm-37.128907 39.941407c12.769532 5.042968 26.285157 7.941406 40 8.585937 13.714844-.644531 27.230469-3.542969 40-8.585937v8.585937c-.019531 14.292969-7.660156 27.492187-20.050781 34.621094-12.386719 7.128906-27.640625 7.105469-40.003906-.0625-3.023437-1.71875-5.792969-3.84375-8.234375-6.320313-7.542969-7.457031-11.761719-17.632812-11.710938-28.238281zm24 72.585937v-10.402344c10.425782 3.210938 21.574219 3.210938 32 0v10.402344c.023438 2.292969 1.042969 4.460937 2.792969 5.941406l-18.792969 15.65625-18.792968-15.648437c1.75-1.484375 2.769531-3.65625 2.792968-5.949219zm-144-240h320v320h-40v-19.359375c-.082031-25.226562-16.945312-47.316406-41.257812-54.042969l-46.742188-12.71875v-12.097656c14.984376-10.433594 23.941407-27.519531 24-45.78125v-15.144531c2.039063-.9375 3.328126-1.601563 3.574219-1.695313 2.714844-1.355469 4.425781-4.128906 4.425781-7.160156v-48l42.871094-16.488281c3.097656-1.183594 5.140625-4.15625 5.140625-7.472656 0-3.316407-2.042969-6.289063-5.140625-7.472657l-104-40c-1.851562-.695312-3.890625-.695312-5.742187 0l-104 40c-3.078125 1.183594-5.113281 4.136719-5.128907 7.433594v36.6875l-21.65625 21.65625 11.3125 11.3125 10.34375-10.34375v12.6875h16v-12.6875l10.34375 10.34375 11.3125-11.3125-21.65625-21.65625v-25.039063l32 12.351563v48c-.015624 3.046875 1.699219 5.835937 4.421876 7.199219.25.121094 1.539062.757812 3.578124 1.695312v15.105469c-.128906 18.308594 8.871094 35.484375 24 45.800781v12.078125l-46.769531 12.726563c-24.300781 6.734375-41.152343 28.816406-41.230469 54.035156v19.359375h-40zm0 0"/><path d="m410.460938 64.351562v-.144531l-178.976563-46.65625c-2.839844-10.363281-12.261719-17.550781-23.007813-17.550781-10.746093 0-20.167968 7.1875-23.007812 17.550781l-179.007812 46.65625v.144531c-3.5.867188-5.960938 3.996094-5.984376 7.601563v400c0 4.417969 3.582032 8 8 8h400c4.417969 0 8-3.582031 8-8v-400c-.027343-3.613281-2.507812-6.746094-6.015624-7.601563zm-201.984376-16.398437c9.445313-.023437 18-5.578125 21.855469-14.199219l115.742188 30.199219h-275.199219l115.746094-30.199219c3.855468 8.621094 12.410156 14.175782 21.855468 14.199219zm0-32c4.417969 0 8 3.582031 8 8s-3.582031 8-8 8c-4.417968 0-8-3.582031-8-8s3.582032-8 8-8zm192 448h-384v-384h384zm0 0"/></svg>