<svg height="492pt" viewBox="0 -4 492.00013 492" width="492pt" xmlns="http://www.w3.org/2000/svg"><path d="m285.949219 338.699219h198.050781v126.902343h-198.050781zm0 0" fill="#00acea"/><g fill="#00efd1"><path d="m285.949219 301.902344h198.050781v36.796875h-198.050781zm0 0"/><path d="m390.730469 140.871094c.210937 30.378906-24.25 55.175781-54.628907 55.378906h-179.871093c-30.265625-.066406-54.792969-24.574219-54.882813-54.839844s24.285156-54.921875 54.550782-55.167968h4.339843c4-43.941407 41.042969-78.492188 85.761719-78.492188 44.515625.070312 81.597656 34.140625 85.429688 78.492188h4.339843c30.214844.019531 54.757813 24.414062 54.960938 54.628906zm0 0"/><path d="m199.800781 413.382812v31.777344h-191.800781v-31.777344zm0 0"/></g><path d="m8 292.109375h191.800781v121.273437h-191.800781zm0 0" fill="#00acea"/><path d="m129.328125 445.160156 8.472656 30.230469h-67.800781l8.480469-30.230469zm0 0" fill="#fedb41"/><path d="m484 293.570312h-73v-1.820312c.085938-13.566406-5.253906-26.609375-14.832031-36.21875-9.578125-9.613281-22.597657-14.996094-36.167969-14.960938h-68c-19.574219 0-36-16.246093-36-35.820312v-.179688h80.15625c34.742188-1 62.8125-28.855468 62.574219-63.597656-.320313-33.527344-26.738281-60.980468-60.222657-62.589844-7.605468-45.234374-46.757812-78.367187-92.625-78.382812-45.867187-.015625-85.042968 33.089844-92.675781 78.320312-33.746093 1.753907-60.144531 29.730469-59.941406 63.519532.246094 34.480468 28.484375 62.730468 62.964844 62.730468h78.769531v.179688c0 19.574219-15.425781 35.820312-35 35.820312h-68c-25.535156.015626-47.207031 18.738282-50.929688 44h-73.070312c-4.417969 0-8 3.121094-8 7.539063v153.050781c0 4.417969 3.582031 8.410156 8 8.410156h59.925781l-3.992187 14h-8.144532c-4.417968 0-8 3.582032-8 8 0 4.417969 3.582032 8 8 8h96.222657c4.417969 0 8-3.582031 8-8 0-4.417968-3.582031-8-8-8h-8.144531l-3.988282-14h59.921875c4.535157-.175781 8.136719-3.871093 8.199219-8.410156v-153.050781c0-4.417969-3.78125-7.539063-8.199219-7.539063h-102.464843c3.558593-16.304687 17.972656-27.949218 34.664062-28h68c19.460938-.019531 37.253906-10.996093 46-28.386718 8.746094 17.390625 26.539062 28.367187 46 28.386718h68c9.328125-.042968 18.28125 3.65625 24.859375 10.269532 6.578125 6.613281 10.230469 15.585937 10.140625 24.910156v1.820312h-109.050781c-4.46875.160157-7.996094 3.855469-7.949219 8.332032v163.699218c-.011719 2.113282.824219 4.144532 2.316406 5.640626 1.492188 1.496093 3.519532 2.332031 5.632813 2.328124h198.050781c2.117188.007813 4.152344-.828124 5.652344-2.324218 1.503906-1.496094 2.347656-3.527344 2.347656-5.644532v-163.699218c.023438-4.484375-3.519531-8.175782-8-8.332032zm-403.445312 174 3.992187-14h38.71875l3.984375 14zm111.445312-30h-176v-16h176zm0-137v105h-176v-105zm-35.765625-112c-25.824219-.160156-46.738281-21.019531-46.964844-46.84375-.078125-12.441406 4.792969-24.398437 13.539063-33.246093 8.746094-8.84375 20.652344-13.847657 33.089844-13.910157h4.339843c4.171875-.074218 7.609375-3.285156 7.96875-7.4375 3.6875-40.269531 37.359375-71.144531 77.792969-71.339843 40.101562 0 74.125 31.398437 77.457031 71.300781.335938 4.171875 3.785157 7.410156 7.972657 7.476562h4.335937c25.792969.082032 46.726563 20.886719 46.964844 46.679688.179687 25.921875-20.765625 47.320312-46.628907 47.320312zm319.765625 269h-182v-111h182zm0-127h-182v-21h182zm0 0" fill="#083863"/><path d="m307.269531 328.570312h14.160157c4.417968 0 8-3.582031 8-8 0-4.417968-3.582032-8-8-8h-14.160157c-4.417969 0-8 3.582032-8 8 0 4.417969 3.582031 8 8 8zm0 0" fill="#083863"/></svg>