<svg height="100pt" viewBox="0 -3 479.84207 479" width="479pt" xmlns="http://www.w3.org/2000/svg"><path d="m239.203125 330.710938h-17.152344v-43.011719c0-12.535157 10.164063-22.699219 22.703125-22.699219h204.21875c12.539063-.003906 22.710938 10.160156 22.710938 22.699219v43.011719zm0 0" fill="#fedb41"/><path d="m454.832031 330.710938v111.011718c0 12.535156-10.164062 22.699219-22.699219 22.699219h-56.730468v-133.710937zm0 0" fill="#00acea"/><g fill="#00efd1"><path d="m375.402344 330.839844v133.582031h-56.761719v-133.710937h56.761719zm0 0"/><path d="m285.640625 138.011719h60.070313l11.820312 102.789062c-4.515625 7.589844-8.046875 15.71875-10.507812 24.199219 0 0-13.480469-51.457031-51.160157-51.457031-14.175781.082031-25.644531 11.554687-25.730469 25.726562-.082031 6.796875 2.5625 13.34375 7.339844 18.175781 4.777344 4.835938 11.292969 7.554688 18.089844 7.554688h-50.808594c-12.539062 0-22.703125 10.164062-22.703125 22.699219v43.011719h17.152344v111.011718c0 12.535156 10.160156 22.699219 22.699219 22.699219h-192.449219c-36.570313 0-65.042969-30.050781-61.082031-64.472656l30.140625-261.9375zm0 0"/><path d="m347.023438 265h-51.460938c-6.796875 0-13.3125-2.71875-18.089844-7.554688-4.777344-4.832031-7.421875-11.378906-7.339844-18.175781.085938-14.171875 11.554688-25.644531 25.730469-25.726562 37.679688 0 51.160157 51.457031 51.160157 51.457031zm0 0"/></g><path d="m318.640625 330.839844v133.582031h-56.738281c-12.539063 0-22.699219-10.164063-22.699219-22.699219v-111.011718h79.4375zm0 0" fill="#00acea"/><path d="m69.453125 472.421875h362.679687c16.949219-.019531 30.6875-13.75 30.710938-30.699219v-103.300781h8.839844c2.105468.070313 4.152344-.707031 5.6875-2.152344 1.53125-1.449219 2.421875-3.449219 2.472656-5.558593v-43.011719c0-16.925781-13.9375-30.277344-30.871094-30.277344h-22.085937c3.175781-6 5.015625-11.46875 5.015625-17.992187-.175782-18.5625-15.167969-33.578126-33.730469-33.785157-12.988281 0-24.824219 5.058594-34.921875 14.902344l-9.589844-83.214844c-.480468-4.003906-3.917968-6.992187-7.949218-6.910156h-51.867188v-36.039063c0-25.109374-10.382812-48.710937-29.046875-66.464843-18.628906-17.730469-43.585937-27.496094-70.003906-27.496094-54.480469 0-98.949219 42.148437-98.949219 93.960937v36.039063h-57.332031c-4.023438-.09375-7.460938 2.882813-7.949219 6.878906l-30.136719 261.839844c-2.121093 18.207031 3.75 36.445313 16.09375 50 13.523438 14.945313 32.777344 23.414063 52.933594 23.28125zm192.449219-16c-8.105469 0-15.058594-6.601563-15.058594-14.699219v-103.300781h64v118zm64.941406 0v-118h41v118zm120-14.699219c-.015625 8.113282-6.59375 14.691406-14.710938 14.699219h-48.289062v-118h63zm17-154.023437v34.722656h-234v-34.722656c0-8.105469 6.796875-14.277344 14.910156-14.277344h204.21875c8.109375 0 14.871094 6.171875 14.871094 14.277344zm-185.710938-48.167969c.09375-9.742188 7.984376-17.609375 17.730469-17.675781 21.699219 0 34.234375 21.566406 39.84375 35.566406h-40.144531c-4.691406-.035156-9.175781-1.945313-12.449219-5.308594-3.273437-3.359375-5.070312-7.890625-4.980469-12.582031zm120-17.988281c9.800782.1875 17.675782 8.132812 17.773438 17.9375-.003906 9.941406-7.664062 17.941406-17.433594 17.941406h-40.148437c1.648437-4.277344 3.679687-8.390625 6.070312-12.300781 9.296875-15.507813 20.664063-23.578125 33.734375-23.578125zm-286.289062-127.160157c0-42.988281 37.242188-77.960937 82.898438-77.960937 21.894531-.175781 43.019531 8.09375 58.976562 23.085937 15.460938 14.707032 24.125 34.191407 24.125 54.875v36.039063h-166zm-95.523438 306.6875 29.320313-254.648437h50.203125v30.699219c0 4.417968 3.578125 8 8 8 4.417969 0 8-3.582032 8-8v-30.699219h166v30.699219c0 4.417968 3.578125 8 8 8 4.417969 0 8-3.582032 8-8v-30.699219h44.734375l10.699219 92.863281c-.804688 1.433594-1.554688 2.746094-2.257813 4.136719-1.359375-2.691406-2.910156-5.542969-4.675781-8.355469-12.109375-19.28125-28.183594-29.5-46.527344-29.5-18.585937.273438-33.546875 15.34375-33.6875 33.925782 0 6.5 1.839844 11.929687 5.007813 17.929687h-22.382813c-16.929687 0-30.910156 13.351563-30.910156 30.277344v43.011719c.058594 2.113281.957031 4.113281 2.5 5.5625 1.542969 1.445312 3.59375 2.21875 5.707031 2.148437h8.792969v103.300781c.113281 5.167969 1.53125 10.222656 4.113281 14.699219h-165.503906c-15.589844.152344-30.5-6.351563-40.992187-17.878906-9.28125-10.144531-13.710938-23.8125-12.140626-37.472657zm0 0" fill="#083863"/></svg>