<?xml version="1.0" encoding="utf-8"?>
<!-- Generator: Adobe Illustrator 17.0.0, SVG Export Plug-In . SVG Version: 6.00 Build 0)  -->
<!DOCTYPE svg PUBLIC "-//W3C//DTD SVG 1.1//EN" "http://www.w3.org/Graphics/SVG/1.1/DTD/svg11.dtd">
<svg version="1.1" id="Слой_3" xmlns="http://www.w3.org/2000/svg" xmlns:xlink="http://www.w3.org/1999/xlink" x="0px" y="0px"
	 width="128px" height="128px" viewBox="0 0 128 128" enable-background="new 0 0 128 128" xml:space="preserve">
<ellipse fill="none" cx="64.5" cy="110.354" rx="47.667" ry="11.813"/>
<path fill="#37a0ef" d="M78.833,24.168c-0.228,0-0.458-0.039-0.684-0.121c-10.303-3.747-26.695,0.028-26.859,0.067
	c-1.078,0.256-2.151-0.415-2.404-1.49c-0.252-1.074,0.414-2.151,1.489-2.404c0.717-0.169,17.712-4.088,29.142,0.067
	c1.038,0.378,1.573,1.525,1.196,2.563C80.417,23.663,79.651,24.168,78.833,24.168z"/>
<path fill="#37a0ef" d="M39.834,34.168c-0.787,0-1.532-0.467-1.85-1.239c-0.421-1.021,0.066-2.19,1.087-2.611
	c0.72-0.296,17.762-7.224,29.288-4.08c1.065,0.291,1.693,1.391,1.403,2.456c-0.291,1.065-1.383,1.694-2.456,1.403
	c-10.222-2.789-26.548,3.852-26.712,3.92C40.346,34.119,40.088,34.168,39.834,34.168z"/>
<path fill="#37a0ef" d="M90.834,34.168c-0.188,0-0.377-0.026-0.565-0.082l-17-5c-1.06-0.312-1.666-1.424-1.354-2.483
	c0.313-1.059,1.428-1.666,2.483-1.354l17,5c1.06,0.311,1.666,1.424,1.354,2.483C92.495,33.602,91.699,34.168,90.834,34.168z"/>
<path fill="#37a0ef" d="M36.835,43.167c-0.733,0-1.44-0.404-1.791-1.105c-0.494-0.988-0.093-2.189,0.895-2.684l8-4
	c0.986-0.495,2.189-0.095,2.684,0.895c0.494,0.988,0.093,2.189-0.895,2.684l-8,4C37.441,43.099,37.136,43.167,36.835,43.167z"/>
<path fill="#37a0ef" d="M92.831,43.167c-0.372,0-0.749-0.103-1.085-0.321c-16.103-10.418-41.212-4.788-41.463-4.73
	c-1.076,0.242-2.15-0.423-2.398-1.499c-0.249-1.077,0.423-2.15,1.499-2.399c1.095-0.252,27.026-6.061,44.537,5.271
	c0.927,0.6,1.192,1.838,0.592,2.766C94.129,42.844,93.488,43.167,92.831,43.167z"/>
<path fill="#37a0ef" d="M36.834,50.168c-0.794,0-1.544-0.477-1.857-1.258c-0.41-1.026,0.088-2.189,1.114-2.601
	c0.412-0.164,10.176-4.061,17.193-6.065c7.112-2.032,19.863-2.273,23.659,0.259c0.919,0.612,1.167,1.854,0.555,2.773
	c-0.613,0.918-1.854,1.168-2.773,0.555c-2.089-1.394-13.144-1.798-20.341,0.259c-6.823,1.949-16.708,5.895-16.807,5.935
	C37.332,50.121,37.081,50.168,36.834,50.168z"/>
<path fill="#37a0ef" d="M93.832,51.167c-0.281,0-0.565-0.059-0.837-0.184l-13-6c-1.003-0.463-1.44-1.651-0.979-2.654
	c0.464-1.004,1.653-1.438,2.654-0.979l13,6c1.003,0.463,1.44,1.651,0.978,2.654C95.312,50.736,94.588,51.167,93.832,51.167z"/>
<path fill="#37a0ef" d="M35.831,57.167c-0.96,0-1.807-0.692-1.97-1.671c-0.182-1.09,0.554-2.12,1.644-2.302
	c2.207-0.368,6.176-1.187,7.435-1.816c2.031-1.015,10.423-4.211,13.895-4.211c1.104,0,2,0.896,2,2s-0.896,2-2,2
	c-2.471,0-10.03,2.751-12.106,3.789c-2.205,1.103-7.921,2.076-8.566,2.184C36.051,57.158,35.94,57.167,35.831,57.167z"/>
<path fill="#37a0ef" d="M93.832,57.167c-0.277,0-0.559-0.058-0.826-0.18c-0.108-0.049-10.849-4.916-15.566-5.859
	c-4.747-0.949-15.499-0.961-15.607-0.961c-1.104,0-2-0.896-2-2s0.896-2,2-2c0.457,0,11.257,0.012,16.393,1.039
	c5.166,1.033,15.978,5.933,16.435,6.141c1.006,0.457,1.45,1.643,0.993,2.647C95.319,56.731,94.592,57.167,93.832,57.167z"/>
<path fill="#37a0ef" d="M35.832,64.168c-0.88,0-1.686-0.585-1.929-1.475c-0.291-1.065,0.338-2.165,1.403-2.456
	c0.109-0.029,11.016-3.009,16.894-4.968c3.843-1.281,17.477-4.917,31.527,2.108c0.988,0.494,1.389,1.695,0.895,2.684
	c-0.494,0.988-1.693,1.39-2.684,0.895c-12.673-6.338-24.998-3.051-28.473-1.892c-5.984,1.994-16.655,4.909-17.106,5.032
	C36.183,64.144,36.006,64.168,35.832,64.168z"/>
<path fill="#37a0ef" d="M93.833,65.168c-0.209,0-0.423-0.033-0.633-0.104l-6-2c-1.048-0.35-1.614-1.483-1.265-2.53
	c0.349-1.047,1.478-1.616,2.53-1.265l6,2c1.048,0.35,1.614,1.483,1.265,2.53C95.451,64.637,94.671,65.168,93.833,65.168z"/>
<path fill="#37a0ef" d="M35.831,71.167c-0.979,0-1.835-0.72-1.978-1.717c-0.156-1.094,0.604-2.106,1.697-2.263l7-1
	c1.09-0.153,2.106,0.604,2.263,1.696c0.156,1.094-0.604,2.106-1.697,2.263l-7,1C36.02,71.16,35.925,71.167,35.831,71.167z"/>
<path fill="#37a0ef" d="M92.833,71.167c-3.048,0-7.007-1.433-11.591-3.091c-5.064-1.832-10.806-3.909-15.409-3.909
	c-8.496,0-18.161,3.818-18.258,3.857c-1.025,0.408-2.189-0.089-2.599-1.115c-0.41-1.025,0.089-2.189,1.114-2.6
	c0.423-0.169,10.464-4.143,19.743-4.143c5.306,0,11.396,2.204,16.771,4.148c4.054,1.467,7.883,2.853,10.229,2.853
	c1.104,0,2,0.896,2,2S93.938,71.167,92.833,71.167z"/>
<path fill="#37a0ef" d="M34.833,77.167c-1.104,0-2-0.896-2-2c0-1.104,0.895-1.999,2-2c2.374-0.001,9.178-0.324,12.106-1.789
	c4.338-2.169,12.632-4.211,15.895-4.211c1.104,0,2,0.896,2,2s-0.895,2-2,2c-2.696,0-10.447,1.96-14.106,3.789
	C44.43,77.104,35.803,77.167,34.833,77.167z"/>
<path fill="#37a0ef" d="M91.833,78.167c-0.658,0-1.359-0.233-2.633-0.658c-1.931-0.644-5.162-1.721-9.65-2.362
	c-7.315-1.045-12.527-4.134-12.746-4.265c-0.947-0.568-1.254-1.797-0.686-2.744c0.568-0.946,1.796-1.253,2.741-0.688
	c0.07,0.042,4.793,2.813,11.257,3.737c4.845,0.691,8.29,1.84,10.35,2.526c0.576,0.192,1.228,0.409,1.461,0.455
	c1.061,0.049,1.906,0.925,1.906,1.998C93.833,77.271,92.938,78.167,91.833,78.167z"/>
<path fill="#37a0ef" d="M36.831,85.167c-0.979,0-1.834-0.72-1.977-1.717c-0.157-1.093,0.603-2.106,1.696-2.263
	c0.135-0.02,13.604-1.993,20.121-6.648c6.621-4.729,15.603,0.045,19.44,2.084c0.412,0.22,0.914,0.486,1.14,0.588
	c0.904,0.191,1.583,0.994,1.583,1.956c0,1.104-0.896,2-2,2c-0.696,0-1.254-0.296-2.601-1.012c-3.18-1.69-10.631-5.651-15.237-2.36
	c-7.313,5.223-21.289,7.268-21.88,7.352C37.02,85.16,36.925,85.167,36.831,85.167z"/>
<path fill="#37a0ef" d="M91.833,85.167c-2.192,0-8.746-2.394-10.702-3.127c-1.034-0.389-1.559-1.541-1.171-2.575
	c0.389-1.034,1.541-1.554,2.575-1.171c3.7,1.388,8.319,2.873,9.298,2.873c1.104,0,2,0.896,2,2S92.938,85.167,91.833,85.167z"/>
<path fill="#37a0ef" d="M40.831,91.167c-0.934,0-1.769-0.657-1.959-1.607c-0.217-1.083,0.485-2.137,1.569-2.354
	c0.099-0.02,9.912-1.987,12.76-2.937c0.794-0.265,1.618-0.619,2.49-0.995c2.295-0.987,4.896-2.107,8.143-2.107
	c3.222,0,8.925,1.639,13.507,2.955c1.584,0.455,2.952,0.849,3.979,1.104c2.074,0.518,3.634,1.038,4.772,1.418
	c0.71,0.236,1.515,0.505,1.762,0.523c1.104,0,1.99,0.895,1.99,1.999s-0.905,2-2.01,2c-0.824,0-1.693-0.289-3.008-0.728
	c-1.137-0.379-2.552-0.851-4.478-1.332c-1.093-0.273-2.492-0.676-4.112-1.141c-4.112-1.182-9.744-2.8-12.402-2.8
	c-2.422,0-4.432,0.865-6.561,1.782c-0.91,0.392-1.852,0.797-2.807,1.115c-3.083,1.027-12.827,2.981-13.24,3.063
	C41.093,91.154,40.961,91.167,40.831,91.167z"/>
<path fill="#37a0ef" d="M45.831,97.167c-1.006,0-1.872-0.756-1.985-1.779c-0.122-1.098,0.669-2.086,1.767-2.208
	c3.603-0.401,8.001-1.121,8.974-1.576c0.784-0.629,1.934-0.579,2.661,0.149c0.781,0.781,0.781,2.047,0,2.828
	c-0.409,0.409-1.496,1.496-11.193,2.573C45.979,97.163,45.905,97.167,45.831,97.167z"/>
<path fill="#37a0ef" d="M81.833,98.167c-3.648,0-8.16-2.332-10.414-4.586c-0.891-0.658-5.738-0.769-10.344-0.206
	c-1.095,0.129-2.094-0.646-2.227-1.743c-0.134-1.096,0.646-2.094,1.742-2.228C63.888,89,71.82,88.325,74.247,90.753
	c1.615,1.614,5.128,3.414,7.586,3.414c1.104,0,2,0.896,2,2S82.938,98.167,81.833,98.167z"/>
<path fill="#37a0ef" d="M55.835,103.167c-0.587,0-1.168-0.257-1.563-0.751c-0.691-0.862-0.55-2.121,0.312-2.811
	c0.927-0.741,5.727-4.438,9.25-4.438c3.432,0,9.023,3.612,10.109,4.336c0.919,0.612,1.167,1.854,0.555,2.772
	c-0.612,0.92-1.856,1.169-2.772,0.556c-2.286-1.521-6.245-3.664-7.892-3.664c-1.568,0-4.955,2.125-6.75,3.562
	C56.714,103.023,56.273,103.167,55.835,103.167z"/>
<path fill="#37a0ef" d="M64.333,117.167c-30.603,0-55.5-24.897-55.5-55.5c0-19.626,10.531-37.988,27.483-47.92
	c1.429-0.836,3.268-0.358,4.105,1.072c0.837,1.43,0.357,3.268-1.072,4.105c-15.123,8.859-24.517,25.237-24.517,42.742
	c0,27.294,22.206,49.5,49.5,49.5c27.294,0,49.5-22.206,49.5-49.5c0-16.859-8.46-32.402-22.631-41.579
	c-1.391-0.901-1.788-2.759-0.888-4.149c0.902-1.39,2.759-1.788,4.15-0.888c15.886,10.288,25.369,27.714,25.369,46.616
	C119.833,92.269,94.936,117.167,64.333,117.167z"/>
<path opacity="0.2" fill="#37a0ef" d="M64.333,112.667c-30.603,0-55.5-24.897-55.5-55.5h6c0,27.294,22.206,49.5,49.5,49.5
	c27.294,0,49.5-22.206,49.5-49.5h6C119.833,87.769,94.936,112.667,64.333,112.667z"/>
</svg>
