<?xml version="1.0" encoding="utf-8"?>
<!-- Generator: Adobe Illustrator 17.0.0, SVG Export Plug-In . SVG Version: 6.00 Build 0)  -->
<!DOCTYPE svg PUBLIC "-//W3C//DTD SVG 1.1//EN" "http://www.w3.org/Graphics/SVG/1.1/DTD/svg11.dtd">
<svg version="1.1" id="icon" xmlns="http://www.w3.org/2000/svg" xmlns:xlink="http://www.w3.org/1999/xlink" x="0px" y="0px"
	 width="128px" height="128px" viewBox="0 0 128 128" enable-background="new 0 0 128 128" xml:space="preserve">
<ellipse fill="none" cx="65.333" cy="110.488" rx="47.667" ry="10.186"/>
<path fill="#fff" d="M87.993,30.848l-9.516-9.516c-0.589-0.589-1.501-0.699-2.213-0.269l-4.961,3.004
	c-2.414-1.348-4.995-2.427-7.709-3.195l-1.383-5.629c-0.199-0.808-0.923-1.569-1.755-1.569H47c-0.831,0-1.555,0.761-1.753,1.569
	l-1.385,5.629c-2.713,0.771-5.295,1.848-7.707,3.195l-4.962-3.004c-0.71-0.43-1.624-0.32-2.212,0.269l-9.516,9.516
	c-0.588,0.588-0.699,1.502-0.269,2.212l3.004,4.962c-1.348,2.412-2.425,4.994-3.195,7.707l-5.628,1.383
	C12.567,47.312,12,48.036,12,48.868v13.457c0,0.834,0.567,1.556,1.375,1.755l5.628,1.383c0.771,2.713,1.848,5.295,3.195,7.709
	l-3.004,4.961c-0.43,0.712-0.319,1.624,0.269,2.213l9.516,9.516c0.588,0.587,1.502,0.699,2.212,0.268l4.962-3.005
	c2.412,1.349,4.994,2.428,7.707,3.196l1.383,5.631c0.2,0.806,0.924,1.723,1.755,1.723h13.457c0.832,0,1.556-0.917,1.755-1.723
	l1.383-5.631c2.714-0.769,5.295-1.848,7.708-3.196l4.962,3.005c0.712,0.432,1.624,0.319,2.213-0.268l9.516-9.516
	c0.586-0.589,0.696-1.502,0.267-2.213l-3.003-4.961c1.348-2.413,6.369-2.96,7.139-5.673l1.687-3.418
	c0.808-0.2,1.374-0.921,1.374-1.755V48.868c0-0.831-0.566-1.555-1.374-1.753l-5.629-1.385c-0.77-2.711-1.849-5.295-3.196-7.707
	l3.003-4.962C88.689,32.35,88.579,31.436,87.993,30.848L87.993,30.848z M53.728,72.726c-9.459,0-17.128-7.67-17.128-17.129
	s7.669-17.129,17.128-17.129c9.459,0,17.129,7.67,17.129,17.129S63.188,72.726,53.728,72.726L53.728,72.726z M53.728,74.427"/>
<path fill="#37a0ef" d="M60.457,99.675H47c-1.879,0-3.307-1.67-3.696-3.242l-1.111-4.526c-2.057-0.653-4.06-1.483-5.979-2.479
	l-3.984,2.413c-1.455,0.884-3.449,0.647-4.661-0.563L18.05,81.76c-1.242-1.244-1.474-3.16-0.567-4.662l2.413-3.986
	c-0.994-1.917-1.824-3.921-2.479-5.98l-4.52-1.11C11.191,65.6,10,64.08,10,62.325V48.868c0-1.756,1.191-3.276,2.897-3.696
	l4.521-1.111c0.654-2.06,1.485-4.063,2.479-5.979l-2.412-3.984c-0.91-1.503-0.677-3.42,0.566-4.663l9.516-9.515
	c1.207-1.21,3.198-1.453,4.663-0.565l3.984,2.412c1.917-0.994,3.919-1.824,5.98-2.478l1.112-4.521
	c0.438-1.79,1.992-3.091,3.695-3.091h13.457c1.701,0,3.255,1.3,3.697,3.09l1.111,4.52c2.054,0.652,4.058,1.483,5.981,2.479
	l3.983-2.412c1.471-0.888,3.452-0.644,4.663,0.566l9.516,9.516c1.241,1.245,1.472,3.161,0.563,4.662l-2.411,3.985
	c0.995,1.918,1.826,3.921,2.479,5.979l4.521,1.112c1.705,0.417,2.896,1.937,2.896,3.695v13.457c0,1.392-0.748,2.635-1.906,3.301
	l-1.291,2.616c-0.716,2.164-2.801,3.223-4.647,4.161c-0.642,0.326-1.334,0.678-1.856,1.034l2.216,3.661
	c0.906,1.502,0.676,3.417-0.56,4.659l-9.52,9.52c-0.722,0.72-1.678,1.115-2.692,1.115l0,0c-0.695,0-1.377-0.19-1.972-0.551
	l-3.983-2.413c-1.92,0.997-3.923,1.828-5.98,2.48l-1.11,4.521C63.764,98.004,62.336,99.675,60.457,99.675z M47.286,95.675H60.17
	c0.044-0.063,0.085-0.143,0.1-0.203l1.382-5.628c0.172-0.699,0.705-1.251,1.397-1.447c2.526-0.715,4.975-1.731,7.277-3.018
	c0.629-0.352,1.396-0.338,2.012,0.035l4.832,2.926l9.3-9.3l-2.925-4.833c-0.372-0.615-0.386-1.383-0.035-2.011
	c0.921-1.65,2.711-2.559,4.29-3.361c1.112-0.565,2.496-1.268,2.671-1.883c0.033-0.117,0.076-0.23,0.13-0.339l1.687-3.418
	c0.238-0.483,0.66-0.848,1.168-1.015V49.02l-5.48-1.349c-0.698-0.171-1.25-0.705-1.446-1.396c-0.718-2.53-1.733-4.979-3.019-7.277
	c-0.35-0.628-0.337-1.396,0.035-2.011l2.925-4.833l-9.301-9.3l-4.83,2.925c-0.616,0.372-1.383,0.386-2.011,0.035
	c-2.307-1.288-4.755-2.303-7.278-3.017c-0.692-0.196-1.226-0.749-1.398-1.447l-1.383-5.629c-0.003-0.012-0.011-0.029-0.021-0.046
	H47.209c-0.009,0.016-0.017,0.032-0.02,0.044l-1.386,5.631c-0.171,0.698-0.704,1.25-1.396,1.446
	c-2.534,0.72-4.983,1.735-7.278,3.018c-0.627,0.35-1.396,0.337-2.011-0.035l-4.831-2.925l-9.302,9.302l2.925,4.831
	c0.372,0.615,0.386,1.383,0.035,2.011c-1.283,2.295-2.298,4.744-3.018,7.278c-0.196,0.691-0.749,1.224-1.446,1.396L14,49.019v13.154
	l5.481,1.347c0.698,0.172,1.25,0.705,1.447,1.396c0.719,2.533,1.735,4.982,3.018,7.28c0.351,0.628,0.337,1.396-0.035,2.011
	l-2.925,4.832l9.302,9.302l4.832-2.927c0.615-0.373,1.383-0.386,2.012-0.035c2.3,1.287,4.748,2.302,7.276,3.018
	c0.692,0.196,1.226,0.748,1.397,1.447l1.383,5.631C47.201,95.533,47.243,95.611,47.286,95.675z M53.728,74.726
	c-10.547,0-19.128-8.581-19.128-19.129c0-10.548,8.581-19.129,19.128-19.129c10.548,0,19.129,8.581,19.129,19.129
	C72.857,66.144,64.276,74.726,53.728,74.726z M53.728,40.468c-8.342,0-15.128,6.787-15.128,15.129s6.787,15.129,15.128,15.129
	c8.342,0,15.129-6.787,15.129-15.129S62.07,40.468,53.728,40.468z"/>
<path fill="#FFFFFF" d="M117.711,71.463l-5.471-5.469c-0.339-0.339-0.862-0.403-1.273-0.155l-2.85,1.727
	c-1.388-0.775-2.872-1.395-4.433-1.837l-0.794-3.235c-0.114-0.464-0.532-0.791-1.009-0.791h-7.735c-0.479,0-0.896,0.326-1.009,0.791
	l-0.797,3.235c-1.559,0.443-3.042,1.063-4.428,1.837l-2.853-1.727c-0.41-0.248-0.935-0.184-1.272,0.155l-5.47,5.469
	c-0.339,0.337-0.401,0.863-0.156,1.271l1.729,2.853c-0.775,1.385-1.394,2.869-1.838,4.43l-3.235,0.795
	c-0.464,0.114-0.79,0.531-0.79,1.009v7.735c0,0.479,0.326,0.895,0.79,1.009l3.235,0.795c0.444,1.56,1.063,3.044,1.838,4.431
	l-1.729,2.851c-0.245,0.41-0.183,0.934,0.156,1.272l5.47,5.47c0.338,0.337,0.862,0.402,1.272,0.154l2.853-1.727
	c1.386,0.775,2.869,1.395,4.428,1.838l0.796,3.236c0.114,0.463,0.531,0.79,1.01,0.79h7.735c0.477,0,0.895-0.326,1.009-0.79
	l0.794-3.236c1.561-0.443,3.045-1.063,4.431-1.838l2.852,1.727c0.411,0.249,0.935,0.184,1.273-0.154l5.471-5.47
	c0.337-0.338,0.4-0.863,0.153-1.272l-1.728-2.851c0.775-1.387,1.396-2.872,1.837-4.431l3.236-0.795
	c0.463-0.114,0.79-0.529,0.79-1.009v-7.735c0-0.478-0.327-0.895-0.79-1.008l-3.236-0.796c-0.441-1.559-1.062-3.044-1.837-4.43
	l1.728-2.853C118.111,72.326,118.048,71.8,117.711,71.463L117.711,71.463z M98.014,94.513c-4.872,0-8.825-3.951-8.825-8.825
	c0-4.873,3.953-8.824,8.825-8.824c4.873,0,8.825,3.951,8.825,8.824C106.839,90.562,102.887,94.513,98.014,94.513L98.014,94.513z
	 M98.014,96.513"/>
<path fill="#37a0ef" d="M101.882,111.675h-7.735c-1.402,0-2.616-0.95-2.951-2.311l-0.527-2.143
	c-0.917-0.313-1.814-0.686-2.685-1.114l-1.887,1.143c-1.167,0.707-2.754,0.518-3.722-0.45l-5.471-5.471
	c-0.987-0.986-1.177-2.513-0.458-3.713l1.148-1.896c-0.427-0.869-0.799-1.767-1.113-2.687l-2.142-0.526
	c-1.362-0.335-2.313-1.549-2.313-2.951v-7.735c0-1.402,0.95-2.616,2.312-2.951l2.143-0.526c0.314-0.92,0.687-1.818,1.113-2.686
	l-1.144-1.888c-0.725-1.209-0.535-2.738,0.456-3.725l5.467-5.466c0.961-0.965,2.549-1.162,3.72-0.454l1.89,1.144
	c0.869-0.428,1.767-0.8,2.685-1.114l0.527-2.142c0.332-1.359,1.546-2.312,2.951-2.312h7.735c1.402,0,2.616,0.951,2.951,2.313
	l0.525,2.141c0.917,0.313,1.815,0.686,2.688,1.114l1.885-1.142c1.182-0.711,2.759-0.514,3.724,0.452l5.471,5.469
	c0.99,0.992,1.176,2.522,0.451,3.721l-1.144,1.889c0.429,0.87,0.801,1.768,1.113,2.687l2.142,0.527
	c1.36,0.332,2.313,1.546,2.313,2.95v7.735c0,1.401-0.95,2.615-2.311,2.951l-2.144,0.526c-0.313,0.918-0.685,1.816-1.113,2.688
	l1.143,1.885c0.724,1.201,0.539,2.729-0.447,3.72l-5.474,5.473c-0.577,0.575-1.34,0.89-2.149,0.89l0,0
	c-0.554,0-1.098-0.152-1.572-0.439l-1.888-1.143c-0.871,0.429-1.769,0.801-2.687,1.114l-0.525,2.141
	C104.497,110.725,103.283,111.675,101.882,111.675z M94.898,107.675h6.229l0.614-2.502c0.171-0.698,0.704-1.251,1.396-1.447
	c1.392-0.395,2.737-0.954,4-1.66c0.629-0.352,1.396-0.338,2.013,0.035l2.207,1.337l4.404-4.404l-1.337-2.206
	c-0.372-0.616-0.386-1.384-0.035-2.012c0.708-1.266,1.266-2.611,1.658-4c0.196-0.692,0.749-1.226,1.447-1.398L120,88.803v-6.227
	l-2.504-0.616c-0.698-0.171-1.251-0.705-1.447-1.397c-0.394-1.391-0.951-2.736-1.657-3.998c-0.352-0.628-0.339-1.397,0.034-2.013
	l1.337-2.208l-4.404-4.403l-2.205,1.336c-0.614,0.373-1.385,0.386-2.011,0.036c-1.267-0.707-2.613-1.265-4.004-1.659
	c-0.691-0.196-1.225-0.749-1.396-1.448l-0.614-2.502h-6.229l-0.616,2.504c-0.172,0.697-0.704,1.249-1.396,1.445
	c-1.393,0.396-2.738,0.954-3.998,1.659c-0.628,0.352-1.396,0.337-2.013-0.035L84.67,67.94l-4.405,4.405l1.337,2.206
	c0.373,0.616,0.386,1.385,0.034,2.013c-0.703,1.255-1.261,2.602-1.659,4c-0.197,0.691-0.749,1.223-1.446,1.395l-2.503,0.615v6.229
	l2.503,0.615c0.697,0.172,1.249,0.704,1.446,1.395c0.398,1.398,0.957,2.745,1.66,4.003c0.351,0.628,0.337,1.397-0.036,2.012
	l-1.336,2.205l4.404,4.405l2.208-1.337c0.616-0.373,1.385-0.386,2.013-0.035c1.263,0.707,2.607,1.265,3.998,1.66
	c0.691,0.196,1.224,0.748,1.396,1.446L94.898,107.675z M98.014,96.513c-5.969,0-10.825-4.856-10.825-10.825
	c0-5.968,4.856-10.824,10.825-10.824c5.969,0,10.825,4.855,10.825,10.824C108.839,91.657,103.982,96.513,98.014,96.513z
	 M98.014,78.864c-3.764,0-6.825,3.061-6.825,6.824c0,3.763,3.062,6.825,6.825,6.825c3.764,0,6.825-3.062,6.825-6.825
	C104.839,81.925,101.777,78.864,98.014,78.864z"/>
<path fill="#37a0ef" d="M101.882,112.675h-7.735c-1.863,0-3.477-1.263-3.923-3.071l-0.398-1.62c-0.604-0.223-1.201-0.47-1.786-0.741
	l-1.425,0.863c-1.548,0.939-3.659,0.687-4.946-0.597l-5.471-5.472c-1.313-1.31-1.564-3.339-0.609-4.934l0.872-1.439
	c-0.271-0.585-0.518-1.181-0.74-1.788l-1.618-0.398c-1.316-0.324-2.344-1.265-2.807-2.471l-0.3-0.333
	c-1.584,0.781-3.22,1.454-4.892,2.011l-0.978,3.981c-0.493,1.994-2.254,4.007-4.668,4.007H47c-2.413,0-4.174-2.013-4.667-4.001
	l-0.979-3.987c-1.746-0.582-3.451-1.289-5.099-2.115l-3.508,2.125c-0.747,0.454-1.608,0.695-2.488,0.695
	c-1.283,0-2.49-0.499-3.398-1.406l-9.517-9.518c-1.568-1.57-1.861-3.99-0.716-5.886l2.125-3.511c-0.823-1.647-1.53-3.353-2.114-5.1
	l-3.979-0.978C10.503,66.46,9,64.541,9,62.325V48.868c0-2.217,1.504-4.136,3.657-4.667l3.982-0.979
	c0.583-1.747,1.291-3.453,2.114-5.099l-2.124-3.508c-1.149-1.898-0.855-4.319,0.715-5.888l9.516-9.515
	c0.906-0.907,2.114-1.408,3.399-1.408c0.877,0,1.738,0.24,2.488,0.695l3.508,2.124c1.646-0.824,3.351-1.53,5.099-2.114l0.979-3.981
	c0.546-2.231,2.508-3.852,4.666-3.852h13.457c2.155,0,4.118,1.62,4.667,3.851l0.979,3.981c1.744,0.582,3.45,1.289,5.101,2.115
	l3.508-2.124c0.753-0.455,1.612-0.694,2.488-0.694c1.284,0,2.491,0.5,3.399,1.409l9.516,9.516c1.567,1.572,1.858,3.991,0.713,5.886
	l-2.124,3.509c0.824,1.647,1.532,3.354,2.115,5.1l3.98,0.979C95.992,44.493,98,45.465,98,48.675v10.012l3.894,0.016
	c1.853,0,3.465,1.264,3.91,3.074l0.397,1.618c0.605,0.223,1.202,0.47,1.788,0.742l1.423-0.862c1.572-0.949,3.667-0.684,4.949,0.6
	l5.471,5.469c1.317,1.319,1.563,3.352,0.6,4.945l-0.864,1.427c0.271,0.585,0.519,1.182,0.741,1.788l1.618,0.398
	c1.808,0.442,3.073,2.055,3.073,3.921v7.735c0,1.862-1.263,3.475-3.071,3.921l-1.62,0.398c-0.223,0.606-0.47,1.203-0.741,1.789
	l0.862,1.424c0.963,1.597,0.718,3.627-0.593,4.944l-5.476,5.475c-0.767,0.764-1.78,1.183-2.856,1.183l0,0
	c-0.736,0-1.459-0.202-2.09-0.583l-1.427-0.864c-0.585,0.271-1.182,0.518-1.787,0.741l-0.396,1.617
	C105.357,111.411,103.745,112.675,101.882,112.675z M95.683,106.675h4.661l0.427-1.74c0.258-1.048,1.058-1.877,2.095-2.171
	c1.317-0.374,2.591-0.902,3.786-1.57c0.941-0.528,2.096-0.507,3.018,0.052l1.537,0.931l3.295-3.295l-0.93-1.536
	c-0.56-0.923-0.58-2.076-0.054-3.019c0.67-1.197,1.197-2.47,1.569-3.784c0.294-1.039,1.123-1.839,2.171-2.096L119,88.019v-4.66
	l-1.743-0.429c-1.047-0.257-1.876-1.058-2.17-2.096c-0.372-1.316-0.9-2.588-1.568-3.782c-0.527-0.942-0.508-2.095,0.052-3.019
	l0.931-1.538l-3.295-3.294l-1.534,0.929c-0.922,0.56-2.076,0.58-3.018,0.054c-1.198-0.669-2.473-1.197-3.788-1.57
	c-1.038-0.294-1.838-1.124-2.095-2.171l-0.429-1.747l-5.354-0.021c-1.652-0.006-2.988-1.348-2.988-3V49.692l-4.264-1.049
	c-1.047-0.257-1.875-1.057-2.169-2.094c-0.697-2.455-1.683-4.831-2.93-7.063c-0.526-0.942-0.506-2.094,0.053-3.017l2.519-4.163
	l-8.191-8.192l-4.16,2.519c-0.922,0.558-2.073,0.58-3.016,0.053c-2.239-1.25-4.615-2.235-7.063-2.928
	c-1.039-0.294-1.839-1.123-2.096-2.171l-1.208-4.914h-11.49l-1.209,4.915c-0.257,1.046-1.057,1.875-2.094,2.169
	c-2.459,0.699-4.835,1.684-7.063,2.928c-0.942,0.526-2.095,0.506-3.017-0.052l-4.161-2.519l-8.193,8.193l2.518,4.161
	c0.559,0.923,0.579,2.075,0.052,3.017c-1.245,2.228-2.229,4.604-2.928,7.063c-0.294,1.037-1.123,1.836-2.17,2.094L15,49.803V61.39
	l4.72,1.159c1.047,0.257,1.875,1.057,2.17,2.094c0.698,2.458,1.684,4.835,2.929,7.065c0.526,0.942,0.506,2.094-0.053,3.017
	l-2.519,4.161l8.193,8.193l4.161-2.52c0.924-0.559,2.077-0.579,3.018-0.052c2.232,1.248,4.608,2.233,7.06,2.928
	c1.039,0.294,1.839,1.123,2.096,2.171l1.245,5.069h11.416l1.245-5.07c0.258-1.048,1.058-1.876,2.096-2.171
	c2.452-0.694,4.828-1.679,7.062-2.928c0.084-0.047,0.17-0.09,0.258-0.129l0.377-0.165c1.183-0.519,2.564-0.223,3.432,0.735
	l2.348,2.597c0.1,0.111,0.191,0.228,0.273,0.351l2.242,0.552c1.046,0.257,1.874,1.055,2.169,2.091
	c0.378,1.324,0.906,2.599,1.572,3.789c0.526,0.943,0.506,2.096-0.054,3.019l-0.93,1.534l3.296,3.295l1.537-0.931
	c0.922-0.559,2.076-0.58,3.018-0.052c1.195,0.668,2.469,1.197,3.784,1.57c1.036,0.294,1.835,1.122,2.093,2.169L95.683,106.675z
	 M98.014,97.513c-6.521,0-11.825-5.305-11.825-11.825c0-6.519,5.305-11.824,11.825-11.824s11.825,5.304,11.825,11.824
	C109.839,92.208,104.534,97.513,98.014,97.513z M98.014,79.864c-3.212,0-5.825,2.612-5.825,5.824c0,3.212,2.613,5.825,5.825,5.825
	s5.825-2.613,5.825-5.825C103.839,82.477,101.226,79.864,98.014,79.864z M53.728,75.726c-11.099,0-20.128-9.03-20.128-20.129
	s9.03-20.129,20.128-20.129c11.1,0,20.129,9.03,20.129,20.129S64.828,75.726,53.728,75.726z M53.728,41.468
	c-7.791,0-14.128,6.338-14.128,14.129c0,7.791,6.338,14.129,14.128,14.129c7.791,0,14.129-6.338,14.129-14.129
	C67.857,47.806,61.519,41.468,53.728,41.468z"/>
</svg>
