<?xml version="1.0" encoding="utf-8"?>
<!-- Generator: Adobe Illustrator 17.0.0, SVG Export Plug-In . SVG Version: 6.00 Build 0)  -->
<!DOCTYPE svg PUBLIC "-//W3C//DTD SVG 1.1//EN" "http://www.w3.org/Graphics/SVG/1.1/DTD/svg11.dtd">
<svg version="1.1" id="Слой_3" xmlns="http://www.w3.org/2000/svg" xmlns:xlink="http://www.w3.org/1999/xlink" x="0px" y="0px"
	 width="128px" height="128px" viewBox="0 0 128 128" enable-background="new 0 0 128 128" xml:space="preserve">
<ellipse fill="none" cx="63.942" cy="108.307" rx="47.667" ry="11.813"/>
<path fill="#fff" d="M99.381,32.055l-67,4.009v27.673c0,5.096,15.004,14.381,33.514,14.381c18.047,0,32.756-9.082,33.48-14.002
	l0.006,0.002v-0.045V32.055z"/>
<path fill="#37a0ef" d="M65.895,81.119c-19.322,0-36.514-9.72-36.514-17.381V36.064c0-1.587,1.236-2.9,2.82-2.995l67-4.009
	c0.833-0.054,1.635,0.244,2.236,0.811c0.603,0.567,0.943,1.357,0.943,2.184v32.019c0,0.162-0.013,0.322-0.038,0.48l0,0
	C101.245,72.011,84.21,81.119,65.895,81.119z M35.381,38.89v24.848c0.357,2.817,13.181,11.381,30.514,11.381
	c17.759,0,29.703-8.74,30.486-11.335V35.24L35.381,38.89z"/>
<path opacity="0.2" fill="#37a0ef" d="M66,61.119c-0.354,0-0.708-0.063-1.046-0.188l-34-12.645
	c-1.553-0.578-2.344-2.305-1.766-3.858c0.577-1.553,2.307-2.343,3.857-1.766L65.979,54.91l29.938-11.589
	c1.545-0.599,3.282,0.171,3.881,1.715c0.598,1.545-0.17,3.283-1.715,3.881l-31,12C66.734,61.052,66.367,61.119,66,61.119z"/>
<path fill="#37a0ef" d="M69.275,38.119c0,1.104-2.015,2-4.5,2c-2.485,0-4.5-0.896-4.5-2s4.681-2,4.5-2
	C67.261,36.119,69.275,37.014,69.275,38.119z"/>
<line fill="#fff" x1="11" y1="37.119" x2="11" y2="79.119"/>
<path fill="#37a0ef" d="M11,82.119c-1.657,0-3-1.343-3-3v-42c0-1.657,1.343-3,3-3s3,1.343,3,3v42C14,80.776,12.657,82.119,11,82.119
	z"/>
<circle fill="#fff" cx="11.5" cy="59.619" r="5.5"/>
<path fill="#37a0ef" d="M11.5,68.119c-4.687,0-8.5-3.813-8.5-8.5s3.813-8.5,8.5-8.5s8.5,3.813,8.5,8.5S16.187,68.119,11.5,68.119z
	 M11.5,57.119c-1.379,0-2.5,1.122-2.5,2.5s1.121,2.5,2.5,2.5s2.5-1.122,2.5-2.5S12.879,57.119,11.5,57.119z"/>
<polygon fill="#fff" points="121.66,34.357 65.895,54.595 10.131,34.357 65.895,14.119 "/>
<path fill="#37a0ef" d="M65.895,56.595c-0.231,0-0.462-0.04-0.683-0.12L9.448,36.237c-0.791-0.287-1.317-1.039-1.317-1.88
	s0.526-1.593,1.317-1.88l55.764-20.238c0.44-0.16,0.923-0.161,1.365,0l55.766,20.238c0.791,0.287,1.317,1.039,1.317,1.88
	s-0.526,1.593-1.317,1.88L66.577,56.474C66.356,56.555,66.125,56.595,65.895,56.595z M15.993,34.357l49.901,18.11l49.903-18.11
	l-49.903-18.11L15.993,34.357z"/>
<path fill="#37a0ef" d="M33.002,46.12c-0.356,0-0.719-0.064-1.072-0.2L9.058,37.158c-1.17-0.448-1.938-1.575-1.927-2.828
	c0.011-1.252,0.799-2.366,1.977-2.793l55.764-20.238c0.662-0.24,1.385-0.24,2.047,0l55.766,20.238
	c1.176,0.426,1.963,1.538,1.977,2.788c0.013,1.25-0.751,2.378-1.918,2.83l-22.66,8.762c-1.549,0.595-3.283-0.172-3.88-1.716
	c-0.598-1.545,0.171-3.283,1.716-3.88l15.193-5.875L65.895,17.31l-47.18,17.123l15.361,5.885c1.547,0.593,2.321,2.327,1.729,3.875
	C35.347,45.387,34.209,46.12,33.002,46.12z"/>
<ellipse fill="#37a0ef" cx="66.5" cy="32.619" rx="5.25" ry="2.25"/>
</svg>
