<?xml version="1.0" encoding="utf-8"?>
<!-- Generator: Adobe Illustrator 17.0.0, SVG Export Plug-In . SVG Version: 6.00 Build 0)  -->
<!DOCTYPE svg PUBLIC "-//W3C//DTD SVG 1.1//EN" "http://www.w3.org/Graphics/SVG/1.1/DTD/svg11.dtd">
<svg version="1.1" xmlns="http://www.w3.org/2000/svg" xmlns:xlink="http://www.w3.org/1999/xlink" x="0px" y="0px" width="128px"
	 height="128px" viewBox="0 0 128 128" enable-background="new 0 0 128 128" xml:space="preserve">
<g id="Layer_1" display="none">
</g>
<g id="Layer_2">
	<g>
		<ellipse opacity="0.5" fill="none" cx="67.558" cy="104.188" rx="47.667" ry="11.813"/>

			<path fill="#fff" stroke="#fff" stroke-width="6" stroke-linecap="round" stroke-linejoin="round" stroke-miterlimit="10" d="
			M124.667,62.471c0-8.317-6.742-15.059-15.059-15.059c-0.666,0-1.317,0.058-1.96,0.141c0.041-0.514,0.078-1.028,0.078-1.553
			c0-10.656-8.638-19.294-19.294-19.294c-2.522,0-4.924,0.498-7.131,1.378C77.98,15.901,66.844,6.941,53.608,6.941
			c-15.408,0-27.978,12.142-28.672,27.378C13.847,35.258,5.138,44.551,5.138,55.882c0,11.321,8.692,20.606,19.765,21.561v0.086
			h85.647v-0.048C118.426,76.994,124.667,70.47,124.667,62.471z"/>
		<g>
			<path fill="#FFFFFF" d="M12.354,56.353c2.04-9.804,9.043-15.795,19.238-16.658c0.638-14.008,12.195-25.171,26.36-25.171
				c6.517,0,12.466,2.379,17.068,6.293C70.382,12.014,61.165,6,50.522,6C35.655,6,23.525,17.716,22.855,32.419
				C12.154,33.324,3.75,42.291,3.75,53.226c0,9.578,3.626,17.644,12.417,20.108C11.335,67.882,11.26,61.613,12.354,56.353z"/>
		</g>
		<path opacity="0.2" fill="#fff" d="M120.053,50.235c0.511,1.513,0.8,3.129,0.8,4.814c0,7.999-6.242,14.523-14.118,15.012v0.047
			H21.088v-0.086c-4.816,0-8.847,0.918-12.186-1.942c3.151,6.968,9.301,9.234,17.269,9.921h1h14h13h19h13h16h10h1
			c7.876-0.489,13.328-7.423,13.328-15.422C126.5,57.467,123.948,52.958,120.053,50.235z"/>

			<polygon fill="#FFFFFF" stroke="#37a0ef" stroke-width="6" stroke-linecap="square" stroke-linejoin="round" stroke-miterlimit="10" points="
			93.172,62 77.608,46.471 62.172,62 72.172,62 72.172,93 83.172,93 83.172,62 		"/>
		<path fill="none" stroke="#37a0ef" stroke-width="6" stroke-linecap="square" stroke-linejoin="round" stroke-miterlimit="10" d="
			M109.608,47.412c-0.666,0-1.317,0.058-1.96,0.141c0.041-0.514,0.078-1.028,0.078-1.553c0-10.656-8.638-19.294-19.294-19.294
			c-2.522,0-4.924,0.498-7.131,1.378C77.98,15.901,66.844,6.941,53.608,6.941c-15.408,0-27.978,12.142-28.672,27.378
			C13.847,35.258,5.138,44.551,5.138,55.882c0,11.321,7.962,21.163,19.034,22.118h1h46v15h13V78h26h1
			c7.876-0.488,13.495-7.53,13.495-15.529C124.667,54.153,117.925,47.412,109.608,47.412z"/>

			<polygon fill="#FFFFFF" stroke="#37a0ef" stroke-width="6" stroke-linecap="square" stroke-linejoin="round" stroke-miterlimit="10" points="
			30.172,87 45.608,102 61.172,87 51.172,87 51.172,56 40.172,56 40.172,87 		"/>
	</g>
</g>
</svg>
